<svg width="650" height="550" viewBox="0 0 650 550" fill="none" xmlns="http://www.w3.org/2000/svg">
<path d="M645.185 318.817H148.883C147.607 318.816 146.383 318.282 145.48 317.332C144.577 316.382 144.07 315.095 144.068 313.752V5.06595C144.07 3.72283 144.577 2.43513 145.48 1.4854C146.383 0.535668 147.607 0.00146622 148.883 0H645.185C646.461 0.00146622 647.685 0.53567 648.588 1.4854C649.491 2.43514 649.998 3.72283 650 5.06595V313.752C649.998 315.095 649.491 316.382 648.588 317.332C647.685 318.282 646.461 318.816 645.185 318.817ZM148.883 2.02638C148.118 2.02726 147.383 2.34778 146.841 2.91763C146.3 3.48746 145.996 4.26008 145.995 5.06595V313.752C145.996 314.558 146.3 315.33 146.841 315.9C147.383 316.469 148.118 316.79 148.883 316.791H645.185C645.95 316.79 646.684 316.469 647.227 315.9C647.768 315.33 648.073 314.558 648.074 313.752V5.06595C648.073 4.26008 647.768 3.48746 647.227 2.91763C646.684 2.34778 645.95 2.02726 645.185 2.02638H148.883Z" fill="#E6E6E6"/>
<path d="M349.195 24.6532C348.193 24.6708 347.238 25.1017 346.536 25.853C345.833 26.6043 345.44 27.6158 345.44 28.6695C345.44 29.7232 345.833 30.7347 346.536 31.486C347.238 32.2373 348.193 32.6681 349.195 32.6858H444.914C445.924 32.7015 446.899 32.2951 447.626 31.5557C448.352 30.8163 448.77 29.8042 448.788 28.7412C448.806 27.6782 448.423 26.651 447.723 25.8847C447.022 25.1185 446.062 24.6757 445.05 24.6534L445.04 24.6532C444.997 24.6524 444.956 24.6524 444.914 24.6532H349.195Z" fill="#3F3D56"/>
<path d="M466.621 23.5349C466.481 23.6831 466.401 23.8841 466.401 24.0937C466.401 24.3033 466.48 24.5043 466.621 24.6525V24.6526L469.846 28.0454H461.893C461.695 28.046 461.505 28.1295 461.364 28.2777C461.224 28.4258 461.145 28.6265 461.145 28.8356C461.145 29.0449 461.224 29.2455 461.364 29.3937C461.505 29.5419 461.695 29.6254 461.893 29.626H469.846L466.621 33.0188C466.551 33.0922 466.496 33.1793 466.458 33.2752C466.42 33.371 466.401 33.4738 466.401 33.5776C466.401 33.6814 466.42 33.7842 466.458 33.8801C466.496 33.9759 466.551 34.0631 466.621 34.1365C466.691 34.2098 466.773 34.2681 466.864 34.3078C466.955 34.3475 467.053 34.3679 467.152 34.3679C467.251 34.3679 467.349 34.3475 467.44 34.3078C467.531 34.2681 467.613 34.2099 467.684 34.1365L472.191 29.3945C472.332 29.2463 472.411 29.0453 472.411 28.8356C472.411 28.6261 472.332 28.4251 472.191 28.2768L467.684 23.5349C467.613 23.4615 467.531 23.4033 467.44 23.3636C467.349 23.3238 467.251 23.3035 467.152 23.3035C467.053 23.3035 466.956 23.3238 466.864 23.3636C466.773 23.4033 466.691 23.4615 466.621 23.5349Z" fill="#E6E6E6"/>
<path d="M327.447 23.5349C327.588 23.6831 327.667 23.8841 327.667 24.0936C327.667 24.3032 327.588 24.5042 327.447 24.6525V24.6526L324.222 28.0453H332.174C332.273 28.0449 332.371 28.0651 332.462 28.1045C332.554 28.144 332.637 28.202 332.707 28.2753C332.777 28.3487 332.833 28.4358 332.87 28.5318C332.909 28.6278 332.928 28.7308 332.928 28.8347C332.929 28.9387 332.91 29.0417 332.871 29.1377C332.834 29.2338 332.778 29.3211 332.709 29.3946C332.638 29.4681 332.555 29.5263 332.464 29.5661C332.373 29.6057 332.275 29.6261 332.176 29.6259H324.222L327.447 33.0187C327.517 33.0921 327.573 33.1793 327.61 33.2751C327.648 33.371 327.667 33.4737 327.667 33.5776C327.667 33.6814 327.648 33.7841 327.61 33.88C327.573 33.9759 327.517 34.063 327.447 34.1364C327.378 34.2098 327.295 34.2681 327.203 34.3077C327.112 34.3475 327.015 34.3679 326.916 34.3679C326.817 34.3679 326.72 34.3475 326.628 34.3077C326.537 34.2681 326.455 34.2098 326.384 34.1364L321.877 29.3945C321.736 29.2462 321.657 29.0452 321.657 28.8356C321.657 28.6261 321.736 28.425 321.877 28.2768L326.384 23.5349C326.525 23.3866 326.717 23.3034 326.916 23.3034C327.115 23.3034 327.306 23.3866 327.447 23.5348V23.5349Z" fill="#E6E6E6"/>
<path d="M143.781 335.821C139.429 335.821 135.175 334.463 131.555 331.92C127.937 329.376 125.117 325.76 123.451 321.531C121.786 317.3 121.35 312.646 122.199 308.154C123.048 303.664 125.144 299.539 128.221 296.301C131.299 293.064 135.22 290.86 139.488 289.966C143.757 289.073 148.18 289.531 152.202 291.284C156.222 293.036 159.659 296.003 162.077 299.81C164.495 303.617 165.785 308.093 165.785 312.672C165.785 318.811 163.467 324.699 159.34 329.041C155.214 333.382 149.616 335.821 143.781 335.821Z" fill="#2ECC71"/>
<path d="M152.463 310.388H145.951V303.537C145.951 302.931 145.722 302.35 145.316 301.922C144.909 301.493 144.357 301.253 143.781 301.253C143.206 301.253 142.654 301.493 142.246 301.922C141.839 302.35 141.61 302.931 141.61 303.537V310.388H135.098C134.523 310.388 133.971 310.628 133.563 311.057C133.157 311.485 132.928 312.065 132.928 312.672C132.928 313.277 133.157 313.858 133.563 314.286C133.971 314.714 134.523 314.955 135.098 314.955H141.61V321.805C141.61 322.411 141.839 322.992 142.246 323.421C142.654 323.849 143.206 324.089 143.781 324.089C144.357 324.089 144.909 323.849 145.316 323.421C145.722 322.992 145.951 322.411 145.951 321.805V314.955H152.463C153.039 314.955 153.591 314.714 153.998 314.286C154.405 313.858 154.634 313.277 154.634 312.672C154.634 312.065 154.405 311.485 153.998 311.057C153.591 310.628 153.039 310.388 152.463 310.388Z" fill="white"/>
<path d="M250.326 65.7747H184.196V113.057H250.326V65.7747Z" fill="#F1F1F1"/>
<path d="M340.213 65.7747H274.083V113.057H340.213V65.7747Z" fill="#F1F1F1"/>
<path d="M430.099 65.7747H363.969V113.057H430.099V65.7747Z" fill="#F1F1F1"/>
<path d="M519.985 65.7747H453.855V113.057H519.985V65.7747Z" fill="#F1F1F1"/>
<path d="M609.872 65.7747H543.742V113.057H609.872V65.7747Z" fill="#F1F1F1"/>
<path d="M250.569 148.856H184.438V196.139H250.569V148.856Z" fill="#F1F1F1"/>
<path d="M340.455 148.856H274.324V196.139H340.455V148.856Z" fill="#F1F1F1"/>
<path d="M430.342 148.856H364.211V196.139H430.342V148.856Z" fill="#F1F1F1"/>
<path d="M520.228 148.856H454.097V196.139H520.228V148.856Z" fill="#F1F1F1"/>
<path d="M610.115 148.856H543.984V196.139H610.115V148.856Z" fill="#F1F1F1"/>
<path d="M250.812 231.938H184.681V279.22H250.812V231.938Z" fill="#F1F1F1"/>
<path d="M340.698 231.938H274.567V279.22H340.698V231.938Z" fill="#F1F1F1"/>
<path d="M430.585 231.938H364.453V279.22H430.585V231.938Z" fill="#F1F1F1"/>
<path d="M520.471 231.938H454.34V279.22H520.471V231.938Z" fill="#F1F1F1"/>
<path d="M610.357 231.938H544.226V279.22H610.357V231.938Z" fill="#F1F1F1"/>
<path d="M377.694 89.4158C382.304 89.4158 386.042 85.4844 386.042 80.6348C386.042 75.7852 382.304 71.8538 377.694 71.8538C373.085 71.8538 369.348 75.7852 369.348 80.6348C369.348 85.4844 373.085 89.4158 377.694 89.4158Z" fill="#2ECC71"/>
<path d="M286.524 172.497C291.133 172.497 294.87 168.566 294.87 163.717C294.87 158.867 291.133 154.936 286.524 154.936C281.914 154.936 278.177 158.867 278.177 163.717C278.177 168.566 281.914 172.497 286.524 172.497Z" fill="#2ECC71"/>
<path d="M377.694 255.579C382.304 255.579 386.042 251.648 386.042 246.799C386.042 241.949 382.304 238.017 377.694 238.017C373.085 238.017 369.348 241.949 369.348 246.799C369.348 251.648 373.085 255.579 377.694 255.579Z" fill="#2ECC71"/>
<path d="M469.507 172.497C474.116 172.497 477.853 168.566 477.853 163.717C477.853 158.867 474.116 154.936 469.507 154.936C464.897 154.936 461.16 158.867 461.16 163.717C461.16 168.566 464.897 172.497 469.507 172.497Z" fill="#3F3D56"/>
<path d="M558.751 172.497C563.361 172.497 567.098 168.566 567.098 163.717C567.098 158.867 563.361 154.936 558.751 154.936C554.142 154.936 550.404 158.867 550.404 163.717C550.404 168.566 554.142 172.497 558.751 172.497Z" fill="#3F3D56"/>
<path d="M286.524 255.579C291.133 255.579 294.87 251.648 294.87 246.799C294.87 241.949 291.133 238.017 286.524 238.017C281.914 238.017 278.177 241.949 278.177 246.799C278.177 251.648 281.914 255.579 286.524 255.579Z" fill="#3F3D56"/>
<path d="M67.682 330.667C76.2438 330.667 83.1845 323.366 83.1845 314.358C83.1845 305.35 76.2438 298.049 67.682 298.049C59.1201 298.049 52.1794 305.35 52.1794 314.358C52.1794 323.366 59.1201 330.667 67.682 330.667Z" fill="#FFB8B8"/>
<path d="M62.085 410.864C61.8898 410.864 61.6936 410.854 61.4966 410.836C60.5216 410.751 59.5748 410.45 58.7183 409.952C57.8617 409.454 57.1147 408.772 56.5262 407.949C55.9378 407.128 55.521 406.183 55.3035 405.18C55.0859 404.176 55.0724 403.136 55.2637 402.127C55.3089 401.892 55.3658 401.66 55.4341 401.432L32.5537 372.963C31.8082 372.028 31.369 370.865 31.3014 369.647C31.2338 368.428 31.5413 367.22 32.1784 366.2L32.2199 366.147L52.8151 344.782C53.9397 343.617 55.4579 342.97 57.0361 342.983C58.6142 342.994 60.1231 343.665 61.2312 344.848C62.3392 346.031 62.9557 347.627 62.9451 349.287C62.9346 350.947 62.2978 352.535 61.1748 353.702C61.1489 353.729 61.1229 353.755 61.0966 353.782L46.1802 368.701L62.51 396.274C62.8193 396.29 63.127 396.331 63.431 396.393C65.1202 396.748 66.6238 397.749 67.6498 399.206C68.6759 400.661 69.1513 402.465 68.9835 404.269C68.8157 406.072 68.0169 407.746 66.7421 408.965C65.4672 410.183 63.8075 410.86 62.085 410.864Z" fill="#FFB8B8"/>
<path d="M93.2145 541.344H100.954L104.634 509.943L93.2131 509.944L93.2145 541.344Z" fill="#FFB8B8"/>
<path d="M91.2412 538.686L106.481 538.685C107.756 538.685 109.019 538.949 110.198 539.462C111.375 539.976 112.446 540.729 113.348 541.677C114.249 542.626 114.965 543.752 115.454 544.992C115.941 546.232 116.193 547.56 116.193 548.902V549.235L91.2416 549.236L91.2412 538.686Z" fill="#2F2E41"/>
<path d="M16.3015 530.088L22.9503 534.253L41.3841 509.254L31.5707 503.107L16.3015 530.088Z" fill="#FFB8B8"/>
<path d="M15.8981 526.742L28.9921 534.943L28.9927 534.944C31.2057 536.331 32.8047 538.585 33.4378 541.211C34.0709 543.838 33.6863 546.621 32.3687 548.949L32.3685 548.95L32.207 549.236L10.7683 535.806L15.8981 526.742Z" fill="#2F2E41"/>
<path d="M102.779 530.253H94.114C93.4124 530.254 92.7352 529.982 92.2135 529.488C91.6919 528.994 91.3628 528.315 91.2897 527.581L82.5541 441.191C82.5321 440.974 82.4426 440.77 82.2996 440.612C82.1565 440.454 81.9678 440.348 81.7625 440.314C81.5573 440.279 81.3469 440.317 81.1638 440.42C80.9808 440.523 80.8352 440.688 80.7496 440.886L64.9903 477.599L37.0893 525.462C36.7282 526.076 36.1692 526.532 35.5145 526.747C34.8597 526.963 34.1532 526.923 33.5241 526.635L22.378 521.476C22.0094 521.306 21.6795 521.054 21.4103 520.739C21.141 520.424 20.9385 520.052 20.816 519.649C20.6937 519.245 20.6542 518.818 20.7003 518.398C20.7464 517.977 20.877 517.572 21.0836 517.208L46.7321 472.026L54.5984 433.958C52.1244 417.449 62.7305 392.906 62.838 392.659L62.8906 392.539L92.1055 380.526L92.2519 380.714C103.774 420.492 110.794 463.299 105.61 527.515C105.547 528.26 105.221 528.953 104.697 529.459C104.174 529.966 103.49 530.248 102.779 530.253Z" fill="black"/>
<path d="M61.7134 396.562L61.5773 396.261C61.5123 396.116 55.0161 381.702 50.0085 366.297C49.046 363.318 48.6822 360.16 48.94 357.026C49.1978 353.891 50.0716 350.847 51.5061 348.085C52.9592 345.296 54.9472 342.855 57.3441 340.915C59.741 338.976 62.4945 337.582 65.4304 336.821C70.527 335.535 75.893 336.219 80.5505 338.748C85.208 341.276 88.8472 345.481 90.8052 350.595C94.7773 361.045 93.5114 372.199 92.32 380.971L92.2963 381.147L92.1444 381.224L61.7134 396.562Z" fill="#2ECC71"/>
<path d="M86.4785 305.145H61.8623V293.856C67.2653 291.598 72.5524 289.678 75.7484 293.856C78.5942 293.856 81.3234 295.046 83.3357 297.163C85.348 299.28 86.4785 302.151 86.4785 305.145Z" fill="black"/>
<path d="M60.4997 291.865C45.7836 291.865 41.6646 311.27 41.6646 322.218C41.6646 328.323 44.2892 330.508 48.4135 331.247L49.87 323.074L53.2813 331.598C54.4399 331.604 55.657 331.581 56.9187 331.556L58.0754 329.051L60.6546 331.511C70.985 331.527 79.3344 333.111 79.3344 322.218C79.3344 311.27 75.722 291.865 60.4997 291.865Z" fill="black"/>
<path d="M125.911 313.584C126.005 313.764 126.091 313.949 126.17 314.14C126.567 315.081 126.769 316.099 126.765 317.129C126.761 318.158 126.549 319.175 126.146 320.113C125.742 321.05 125.154 321.887 124.422 322.57C123.689 323.251 122.827 323.763 121.894 324.07C121.676 324.141 121.456 324.199 121.233 324.245L108.454 359.019C108.032 360.156 107.272 361.119 106.289 361.765C105.305 362.412 104.149 362.707 102.993 362.608L102.929 362.596L75.2332 353.824C73.7213 353.345 72.4522 352.254 71.705 350.79C70.9579 349.327 70.7939 347.611 71.2492 346.021C71.7044 344.43 72.7417 343.095 74.1326 342.309C75.5236 341.522 77.1544 341.35 78.6663 341.829C78.7008 341.84 78.7353 341.851 78.7696 341.863L98.3663 348.482L113.537 320.186C113.402 319.892 113.289 319.589 113.195 319.278C112.681 317.549 112.796 315.68 113.519 314.035C114.24 312.39 115.518 311.087 117.103 310.376C118.688 309.667 120.467 309.602 122.094 310.194C123.722 310.787 125.083 311.995 125.911 313.584Z" fill="#FFB8B8"/>
<path d="M129.123 550H0.66903C0.491592 550 0.321421 549.926 0.195953 549.793C0.0704863 549.662 0 549.482 0 549.297C0 549.11 0.0704863 548.931 0.195953 548.799C0.321421 548.667 0.491592 548.592 0.66903 548.592H129.123C129.3 548.592 129.47 548.667 129.596 548.799C129.721 548.931 129.792 549.11 129.792 549.297C129.792 549.482 129.721 549.662 129.596 549.793C129.47 549.926 129.3 550 129.123 550Z" fill="#CCCCCC"/>
</svg>
