<svg width="650" height="550" viewBox="0 0 650 550" fill="none" xmlns="http://www.w3.org/2000/svg">
<g clip-path="url(#clip0)">
<path d="M650 108.209V65.8248C635.2 62.801 621.268 57.0741 609.087 49.0075C596.905 40.9408 586.741 30.7103 579.239 18.9647L579.238 18.9655C575.638 21.3398 571.274 22.6176 566.793 22.6091H528.963C539.058 44.9925 555.525 64.6542 576.746 79.6622C597.967 94.6702 623.212 104.508 650 108.209V108.209Z" fill="#E6E6E6"/>
<path d="M650 63.3958V22.6792C650.001 19.7007 649.343 16.7512 648.062 13.9992C646.781 11.2472 644.903 8.74671 642.536 6.64057C640.169 4.53442 637.358 2.86392 634.265 1.7245C631.171 0.585087 627.856 -0.000907338 624.508 1.0545e-06H587.779V3.93169C587.783 6.45336 587.211 8.94944 586.098 11.2686C584.985 13.5877 583.354 15.6815 581.304 17.4231C588.561 28.8942 598.412 38.9021 610.236 46.8149C622.06 54.7277 635.6 60.3735 650 63.3958Z" fill="#E6E6E6"/>
<path d="M473.322 22.6091H449.667C444.1 22.6077 438.762 20.6392 434.826 17.1366C430.891 13.634 428.68 8.8841 428.681 3.93169V8.22116e-08H394.219C390.871 -0.000253514 387.556 0.58619 384.463 1.72584C381.37 2.86548 378.559 4.53601 376.192 6.64202C373.825 8.74803 371.947 11.2483 370.666 14C369.385 16.7516 368.726 19.7009 368.726 22.6792V527.336C368.723 530.315 369.38 533.265 370.66 536.017C371.94 538.769 373.818 541.269 376.186 543.375C378.554 545.48 381.366 547.149 384.46 548.286C387.555 549.423 390.871 550.005 394.219 550H624.508C625.558 550.002 626.607 549.945 627.649 549.829C633.815 549.145 639.488 546.482 643.603 542.341C647.718 538.199 649.993 532.864 650 527.336V155.833C566.243 147.199 496.452 94.0325 473.322 22.6091Z" fill="#E6E6E6"/>
<path d="M526.092 22.6091H476.087C499.104 92.7089 567.695 144.863 650 153.459V110.623C622.495 106.881 596.576 96.7838 574.833 81.3389C553.089 65.8941 536.282 45.6429 526.092 22.6091V22.6091Z" fill="#E6E6E6"/>
<path d="M390.922 188.263C389.994 188.264 389.105 188.592 388.448 189.176C387.792 189.76 387.423 190.551 387.422 191.377V243.521C387.423 244.346 387.792 245.138 388.448 245.722C389.104 246.306 389.994 246.634 390.922 246.635H627.206C628.134 246.634 629.024 246.306 629.68 245.722C630.336 245.138 630.705 244.346 630.706 243.521V191.377C630.705 190.551 630.336 189.76 629.68 189.176C629.024 188.592 628.134 188.264 627.206 188.263H390.922Z" fill="white"/>
<path d="M421.552 233.798C431.701 233.798 439.929 226.478 439.929 217.449C439.929 208.419 431.701 201.099 421.552 201.099C411.402 201.099 403.174 208.419 403.174 217.449C403.174 226.478 411.402 233.798 421.552 233.798Z" fill="#2ECC71"/>
<path d="M463.995 206.549C463.183 206.549 462.404 206.836 461.83 207.347C461.255 207.858 460.932 208.551 460.932 209.274C460.932 209.997 461.255 210.69 461.83 211.201C462.404 211.712 463.183 211.999 463.995 211.999H608.391C609.203 211.999 609.982 211.712 610.557 211.201C611.131 210.69 611.454 209.997 611.454 209.274C611.454 208.551 611.131 207.858 610.557 207.347C609.982 206.836 609.203 206.549 608.391 206.549H463.995Z" fill="#E6E6E6"/>
<path d="M463.995 222.899C463.183 222.899 462.404 223.186 461.83 223.697C461.255 224.208 460.932 224.901 460.932 225.624C460.932 226.346 461.255 227.039 461.83 227.55C462.404 228.061 463.183 228.348 463.995 228.348H608.391C609.203 228.348 609.982 228.061 610.557 227.55C611.131 227.039 611.454 226.346 611.454 225.624C611.454 224.901 611.131 224.208 610.557 223.697C609.982 223.186 609.203 222.899 608.391 222.899H463.995Z" fill="#E6E6E6"/>
<path d="M390.922 277.796C389.994 277.797 389.105 278.125 388.448 278.709C387.792 279.293 387.423 280.085 387.422 280.91V333.054C387.423 333.88 387.792 334.672 388.448 335.255C389.104 335.839 389.994 336.168 390.922 336.169H627.206C628.134 336.168 629.024 335.839 629.68 335.255C630.336 334.672 630.705 333.88 630.706 333.054V280.91C630.705 280.085 630.336 279.293 629.68 278.709C629.024 278.125 628.134 277.797 627.206 277.796H390.922Z" fill="white"/>
<path d="M421.552 323.332C431.701 323.332 439.929 316.012 439.929 306.982C439.929 297.953 431.701 290.633 421.552 290.633C411.402 290.633 403.174 297.953 403.174 306.982C403.174 316.012 411.402 323.332 421.552 323.332Z" fill="#2ECC71"/>
<path d="M463.995 296.082C463.183 296.082 462.404 296.37 461.83 296.881C461.255 297.392 460.932 298.085 460.932 298.807C460.932 299.53 461.255 300.223 461.83 300.734C462.404 301.245 463.183 301.532 463.995 301.532H608.391C609.203 301.532 609.982 301.245 610.557 300.734C611.131 300.223 611.454 299.53 611.454 298.807C611.454 298.085 611.131 297.392 610.557 296.881C609.982 296.37 609.203 296.082 608.391 296.082H463.995Z" fill="#E6E6E6"/>
<path d="M463.995 312.432C463.183 312.432 462.404 312.719 461.83 313.23C461.255 313.741 460.932 314.434 460.932 315.157C460.932 315.88 461.255 316.573 461.83 317.084C462.404 317.595 463.183 317.882 463.995 317.882H608.391C609.203 317.882 609.982 317.595 610.557 317.084C611.131 316.573 611.454 315.88 611.454 315.157C611.454 314.434 611.131 313.741 610.557 313.23C609.982 312.719 609.203 312.432 608.391 312.432H463.995Z" fill="#E6E6E6"/>
<path d="M390.922 367.329C389.994 367.33 389.105 367.659 388.448 368.243C387.792 368.826 387.423 369.618 387.422 370.444V422.588C387.423 423.413 387.792 424.205 388.448 424.789C389.104 425.373 389.994 425.701 390.922 425.702H627.206C628.134 425.701 629.024 425.373 629.68 424.789C630.336 424.205 630.705 423.413 630.706 422.588V370.444C630.705 369.618 630.336 368.826 629.68 368.243C629.024 367.659 628.134 367.33 627.206 367.329H390.922Z" fill="white"/>
<path d="M421.552 412.865C431.701 412.865 439.929 405.545 439.929 396.516C439.929 387.486 431.701 380.166 421.552 380.166C411.402 380.166 403.174 387.486 403.174 396.516C403.174 405.545 411.402 412.865 421.552 412.865Z" fill="#2ECC71"/>
<path d="M463.995 385.616C463.183 385.616 462.404 385.903 461.83 386.414C461.255 386.925 460.932 387.618 460.932 388.341C460.932 389.064 461.255 389.757 461.83 390.268C462.404 390.779 463.183 391.066 463.995 391.066H608.391C609.203 391.066 609.982 390.779 610.557 390.268C611.131 389.757 611.454 389.064 611.454 388.341C611.454 387.618 611.131 386.925 610.557 386.414C609.982 385.903 609.203 385.616 608.391 385.616H463.995Z" fill="#E6E6E6"/>
<path d="M463.995 401.965C463.183 401.965 462.404 402.253 461.83 402.764C461.255 403.275 460.932 403.968 460.932 404.69C460.932 405.413 461.255 406.106 461.83 406.617C462.404 407.128 463.183 407.415 463.995 407.415H608.391C609.203 407.415 609.982 407.128 610.557 406.617C611.131 406.106 611.454 405.413 611.454 404.69C611.454 403.968 611.131 403.275 610.557 402.764C609.982 402.253 609.203 401.965 608.391 401.965H463.995Z" fill="#E6E6E6"/>
<path d="M509.064 531.205C533.23 531.205 552.821 513.777 552.821 492.277C552.821 470.778 533.23 453.35 509.064 453.35C484.898 453.35 465.308 470.778 465.308 492.277C465.308 513.777 484.898 531.205 509.064 531.205Z" fill="#2ECC71"/>
<path d="M535.317 492.277H511.689V471.257H506.438V492.277H482.81V496.949H506.438V517.97H511.689V496.949H535.317V492.277Z" fill="white"/>
<path d="M94.6866 504.654L96.0852 513.811C96.0852 513.811 131.662 524.63 124.71 529.585C117.759 534.54 61.5466 534.773 60.3758 531.952C59.205 529.131 58.9448 516.929 62.1157 515.887C65.2866 514.846 71.1487 504.372 71.1487 504.372L94.6866 504.654Z" fill="black"/>
<path d="M130.583 316.671L108.276 440.001L97.9184 513.007L64.4563 511.589L75.6098 390.386L104.292 321.633L130.583 316.671Z" fill="black"/>
<path d="M154.485 316.672L157.671 328.012C157.671 328.012 169.622 357.781 159.265 356.364C148.908 354.946 144.127 329.43 144.127 329.43L142.534 320.215L154.485 316.672Z" fill="#FFB6B6"/>
<path d="M50.9121 312.419L75.6102 409.523L105.885 523.639L134.567 514.425L113.852 422.282C113.852 422.282 117.039 402.435 113.852 392.512C110.665 382.589 110.666 339.353 110.666 339.353L134.567 320.924V285.504L71.6266 280.523L50.9121 312.419Z" fill="black"/>
<path d="M134.637 512.153L136.176 521.292C136.176 521.292 171.916 531.677 165.041 536.716C158.166 541.755 101.963 542.673 100.749 539.867C99.5352 537.06 99.0873 524.862 102.242 523.782C105.397 522.702 111.097 512.157 111.097 512.157L134.637 512.153Z" fill="black"/>
<path d="M147.712 173.141C160.913 173.141 171.614 163.621 171.614 151.877C171.614 140.134 160.913 130.614 147.712 130.614C134.512 130.614 123.811 140.134 123.811 151.877C123.811 163.621 134.512 173.141 147.712 173.141Z" fill="#FFB6B6"/>
<path d="M131.779 149.042L104.69 161.8L115.047 191.57H126.202L132.575 184.482L130.185 180.229L149.306 167.47L131.779 149.042Z" fill="#FFB6B6"/>
<path d="M123.014 188.734L122.616 177.039L111.735 158.482L70.8298 173.496L85.1705 289.029L134.567 291.863L132.973 242.957L140.94 189.798L138.152 174.558L123.014 188.734Z" fill="#2ECC71"/>
<path d="M126.201 245.438L107.016 160.214C107.016 160.214 63.2611 168.179 59.2775 173.85C55.294 179.52 49.717 294.344 49.717 294.344C49.717 294.344 41.7498 317.026 49.717 317.026C57.6841 317.026 89.5526 296.471 91.146 304.268C92.7394 312.064 94.3328 316.317 105.487 314.191C116.641 312.064 123.811 295.053 123.811 295.053C123.811 295.053 121.421 329.075 126.201 329.075C130.982 329.075 138.152 331.202 138.152 327.658V251.817L157.273 190.152L138.354 174.692L130.185 180.229L126.201 245.438Z" fill="black"/>
<path d="M152.094 191.924L157.671 190.506C157.671 190.506 159.265 200.43 159.265 202.556C159.265 204.682 154.484 246.501 154.484 246.501L158.468 318.089L140.144 325.177L134.567 244.375L152.094 191.924Z" fill="black"/>
<path d="M123.811 154.004C123.811 154.004 114.251 129.905 135.762 124.234C157.273 118.564 166.834 124.943 170.021 128.487C173.359 132.2 189.142 150.46 179.581 154.712C170.021 158.965 165.639 153.649 165.639 151.523C165.639 149.396 151.298 151.523 144.924 153.649C143.195 154.289 141.293 154.462 139.454 154.147C137.615 153.832 135.921 153.042 134.583 151.877C134.583 151.877 132.973 145.144 128.193 148.688C123.413 152.232 123.811 154.004 123.811 154.004Z" fill="black"/>
<path d="M196.397 334.556C195.974 333.821 195.241 333.266 194.358 333.012C193.475 332.758 192.514 332.825 191.688 333.2L139.495 356.928C138.669 357.304 138.045 357.957 137.759 358.742C137.473 359.528 137.549 360.382 137.971 361.118L245.489 548.303C245.912 549.038 246.646 549.594 247.529 549.848C248.412 550.102 249.372 550.034 250.199 549.659L302.391 525.932C303.217 525.555 303.841 524.903 304.127 524.117C304.413 523.331 304.337 522.477 303.915 521.741L196.397 334.556Z" fill="#E6E6E6"/>
<path d="M181.121 388.452C191.271 388.452 199.499 381.132 199.499 372.102C199.499 363.072 191.271 355.752 181.121 355.752C170.972 355.752 162.744 363.072 162.744 372.102C162.744 381.132 170.972 388.452 181.121 388.452Z" fill="#2ECC71"/>
<path d="M211.345 400.766C210.975 400.123 210.334 399.636 209.561 399.414C208.788 399.191 207.947 399.251 207.224 399.58C206.501 399.908 205.954 400.479 205.703 401.167C205.453 401.855 205.521 402.602 205.89 403.246L271.596 517.637C271.778 517.956 272.03 518.24 272.336 518.472C272.642 518.704 272.997 518.881 273.38 518.991C273.763 519.101 274.166 519.144 274.567 519.115C274.969 519.087 275.359 518.988 275.718 518.825C276.076 518.662 276.395 518.438 276.656 518.166C276.917 517.893 277.115 517.578 277.239 517.237C277.362 516.896 277.409 516.537 277.377 516.18C277.345 515.824 277.234 515.476 277.05 515.157L211.345 400.766Z" fill="white"/>
<path d="M194.98 408.206C194.797 407.887 194.545 407.604 194.239 407.372C193.933 407.14 193.578 406.963 193.196 406.853C192.813 406.743 192.41 406.701 192.009 406.729C191.608 406.758 191.217 406.856 190.859 407.019C190.501 407.182 190.182 407.406 189.921 407.679C189.66 407.951 189.462 408.266 189.339 408.607C189.215 408.947 189.167 409.306 189.199 409.663C189.231 410.019 189.342 410.367 189.525 410.686L255.231 525.077C255.6 525.72 256.242 526.207 257.015 526.429C257.788 526.652 258.629 526.592 259.352 526.263C260.075 525.934 260.622 525.363 260.872 524.676C261.122 523.988 261.055 523.24 260.686 522.597L194.98 408.206Z" fill="white"/>
<path opacity="0.2" d="M75.1426 414.839L97.8958 507.486L99.8334 499.506L75.1426 414.839Z" fill="black"/>
<path d="M101.877 331.059C102.022 330.243 101.797 329.41 101.252 328.742C100.706 328.074 99.8853 327.625 98.9688 327.495L41.0812 319.323C40.1644 319.194 39.2277 319.395 38.4766 319.88C37.7255 320.365 37.2214 321.095 37.0749 321.91L0.0431709 529.522C-0.101218 530.337 0.123983 531.171 0.669349 531.839C1.21471 532.507 2.03571 532.955 2.95222 533.086L60.8399 541.258C61.7566 541.386 62.6933 541.186 63.4443 540.701C64.1953 540.216 64.6993 539.486 64.8457 538.67L101.877 331.059Z" fill="#E6E6E6"/>
<path d="M64.6764 369.747C74.8261 369.747 83.054 362.427 83.054 353.397C83.054 344.368 74.8261 337.048 64.6764 337.048C54.5268 337.048 46.2988 344.368 46.2988 353.397C46.2988 362.427 54.5268 369.747 64.6764 369.747Z" fill="#2ECC71"/>
<path d="M70.1248 392.399C70.1884 392.045 70.173 391.684 70.0795 391.335C69.986 390.987 69.8163 390.659 69.5799 390.369C69.3436 390.079 69.0454 389.833 68.7023 389.646C68.3592 389.458 67.9779 389.333 67.5804 389.277C67.1828 389.221 66.7767 389.235 66.3853 389.319C65.9939 389.402 65.6248 389.554 65.2992 389.764C64.9736 389.975 64.6979 390.241 64.4878 390.546C64.2777 390.851 64.1373 391.191 64.0747 391.545L41.4441 518.418C41.3168 519.132 41.5134 519.861 41.9907 520.446C42.468 521.031 43.1869 521.423 43.9892 521.536C44.7915 521.65 45.6115 521.475 46.2688 521.05C46.9262 520.625 47.367 519.986 47.4943 519.272L70.1248 392.399Z" fill="white"/>
<path d="M51.9742 389.836C52.0373 389.483 52.0215 389.122 51.9277 388.774C51.8339 388.426 51.664 388.098 51.4277 387.808C51.1913 387.519 50.8932 387.273 50.5503 387.086C50.2074 386.899 49.8265 386.774 49.4292 386.718C49.0319 386.662 48.6261 386.676 48.235 386.759C47.8439 386.843 47.475 386.994 47.1495 387.204C46.8241 387.414 46.5483 387.68 46.3381 387.985C46.1278 388.29 45.9871 388.629 45.9241 388.982L23.2936 515.856C23.23 516.209 23.2454 516.571 23.3389 516.919C23.4324 517.267 23.6022 517.596 23.8385 517.886C24.0748 518.176 24.373 518.421 24.7161 518.609C25.0592 518.796 25.4404 518.921 25.838 518.977C26.2356 519.033 26.6417 519.019 27.0331 518.936C27.4245 518.852 27.7936 518.701 28.1192 518.49C28.4448 518.279 28.7205 518.014 28.9306 517.708C29.1407 517.403 29.2811 517.064 29.3437 516.71L51.9742 389.836Z" fill="white"/>
<path d="M76.5984 298.765L79.7852 310.105C79.7852 310.105 91.7359 339.875 81.3787 338.457C71.0214 337.04 66.2411 311.523 66.2411 311.523L64.6477 302.309L76.5984 298.765Z" fill="#FFB6B6"/>
<path d="M70.83 175L59.6756 174.204L27.0107 257.133L64.4565 314.545L90.7478 296.825L62.8629 256.424L84.3743 204.682L70.83 175Z" fill="black"/>
</g>
<defs>
<clipPath id="clip0">
<rect width="650" height="550" fill="white"/>
</clipPath>
</defs>
</svg>
