<svg width="500" height="550" viewBox="0 0 500 550" fill="none" xmlns="http://www.w3.org/2000/svg">
<path d="M209.097 312.792C209.417 312.929 209.707 313.126 209.95 313.372C210.193 313.619 210.385 313.91 210.514 314.23C210.643 314.55 210.706 314.892 210.702 315.236C210.698 315.581 210.624 315.92 210.486 316.236L206.88 324.503L207.288 324.71L204.83 330.321L204.436 330.106L191.517 359.722C191.076 360.736 190.274 361.557 189.265 362.03C188.255 362.504 187.105 362.599 186.029 362.298L165.943 356.664C165.454 356.528 165.001 356.287 164.616 355.959C164.231 355.63 163.925 355.223 163.716 354.765C163.508 354.308 163.403 353.811 163.409 353.309C163.417 352.807 163.535 352.312 163.756 351.86L184.001 310.422C184.427 309.551 185.139 308.85 186.023 308.432C186.905 308.014 187.906 307.905 188.86 308.124L208.624 312.642C208.786 312.677 208.945 312.727 209.097 312.792Z" fill="#3F3D56"/>
<path d="M192.379 311.317L202.769 313.692C202.956 313.735 203.152 313.715 203.327 313.638C203.502 313.559 203.646 313.425 203.736 313.258C203.838 313.069 204.001 312.918 204.2 312.83C204.397 312.741 204.62 312.719 204.831 312.768L207.02 313.268C207.318 313.336 207.598 313.468 207.84 313.655C208.081 313.842 208.277 314.079 208.416 314.348C208.555 314.618 208.632 314.914 208.641 315.217C208.651 315.52 208.593 315.82 208.472 316.099L189.775 359.051C189.543 359.584 189.12 360.014 188.587 360.26C188.055 360.505 187.449 360.547 186.887 360.379L166.941 354.44C166.687 354.364 166.451 354.235 166.253 354.061C166.053 353.888 165.894 353.673 165.786 353.434C165.678 353.194 165.624 352.935 165.627 352.672C165.631 352.409 165.691 352.151 165.806 351.914L185.567 310.74C185.858 310.133 186.351 309.644 186.963 309.351C187.576 309.058 188.27 308.982 188.933 309.133L191.24 309.661C191.183 310.027 191.27 310.401 191.48 310.708C191.691 311.015 192.012 311.233 192.379 311.317Z" fill="#2ECC71"/>
<path d="M273.365 89.5349C264.395 89.5349 255.625 86.9093 248.166 81.9902C240.708 77.0711 234.894 70.0794 231.461 61.8992C228.029 53.719 227.131 44.7178 228.88 36.0337C230.631 27.3497 234.95 19.3729 241.294 13.1121C247.637 6.85123 255.718 2.58754 264.517 0.860187C273.315 -0.867176 282.435 0.0193732 290.722 3.40771C299.011 6.79606 306.094 12.534 311.078 19.8959C316.062 27.2579 318.721 35.9133 318.721 44.7675C318.708 56.6364 313.925 68.0153 305.422 76.4079C296.919 84.8005 285.391 89.5215 273.365 89.5349ZM273.365 2.13177C264.822 2.13177 256.471 4.63231 249.367 9.31717C242.263 14.0021 236.727 20.6608 233.457 28.4514C230.188 36.2421 229.333 44.8148 230.999 53.0852C232.665 61.3557 236.78 68.9528 242.821 74.9155C248.862 80.8782 256.559 84.9388 264.938 86.5839C273.317 88.229 282.003 87.3847 289.896 84.1577C297.789 80.9307 304.536 75.466 309.282 68.4546C314.028 61.4431 316.562 53.1999 316.562 44.7675C316.549 33.4637 311.993 22.6265 303.895 14.6336C295.798 6.64062 284.817 2.14455 273.365 2.13177Z" fill="#CCCCCC"/>
<path d="M448.311 131.105C439.341 131.105 430.571 128.479 423.112 123.56C415.654 118.641 409.84 111.649 406.407 103.469C402.975 95.2888 402.077 86.2875 403.826 77.6035C405.577 68.9195 409.896 60.9427 416.24 54.6818C422.583 48.421 430.664 44.1573 439.463 42.4299C448.261 40.7027 457.381 41.5892 465.668 44.9775C473.957 48.3659 481.04 54.1038 486.024 61.4658C491.008 68.8277 493.667 77.4831 493.667 86.3372C493.654 98.2062 488.871 109.585 480.368 117.978C471.865 126.37 460.337 131.091 448.311 131.105ZM448.311 43.7015C439.768 43.7015 431.417 46.2021 424.313 50.8869C417.209 55.5718 411.673 62.2306 408.403 70.0213C405.134 77.8119 404.279 86.3845 405.945 94.655C407.611 102.926 411.726 110.522 417.767 116.485C423.808 122.447 431.505 126.509 439.884 128.153C448.263 129.799 456.949 128.955 464.842 125.727C472.735 122.501 479.482 117.036 484.228 110.025C488.974 103.013 491.507 94.7698 491.507 86.3372C491.495 75.0334 486.939 64.1963 478.841 56.2034C470.744 48.2104 459.763 43.7143 448.311 43.7015Z" fill="#CCCCCC"/>
<path d="M367.317 272.868C358.348 272.868 349.578 270.243 342.119 265.324C334.661 260.405 328.847 253.413 325.413 245.233C321.982 237.052 321.083 228.051 322.832 219.367C324.583 210.683 328.903 202.706 335.246 196.446C341.589 190.185 349.67 185.921 358.47 184.194C367.268 182.466 376.388 183.353 384.675 186.741C392.963 190.129 400.046 195.867 405.03 203.229C410.014 210.591 412.674 219.246 412.674 228.101C412.661 239.969 407.878 251.349 399.375 259.742C390.871 268.134 379.343 272.854 367.317 272.868ZM367.317 185.465C358.774 185.465 350.423 187.966 343.32 192.65C336.216 197.335 330.679 203.995 327.409 211.785C324.14 219.576 323.285 228.148 324.951 236.419C326.618 244.689 330.732 252.286 336.773 258.248C342.814 264.211 350.512 268.272 358.891 269.917C367.27 271.563 375.956 270.718 383.849 267.491C391.742 264.264 398.488 258.8 403.234 251.788C407.98 244.777 410.514 236.533 410.514 228.101C410.501 216.797 405.946 205.96 397.848 197.967C389.75 189.974 378.77 185.478 367.317 185.465Z" fill="#CCCCCC"/>
<path d="M142.913 536.634L155.258 536.633L161.13 489.631L142.908 489.632L142.913 536.634Z" fill="#FFB8B8"/>
<path d="M179.069 547.946L140.268 547.949L140.267 533.153L164.076 533.15C166.044 533.15 167.995 533.533 169.813 534.276C171.632 535.02 173.285 536.109 174.677 537.483C176.069 538.857 177.174 540.488 177.927 542.283C178.68 544.078 179.068 546.003 179.069 547.946Z" fill="#2ECC71"/>
<path d="M76.3661 536.634L88.7128 536.633L94.5832 489.631L76.3618 489.632L76.3661 536.634Z" fill="#FFB8B8"/>
<path d="M112.523 547.946L73.722 547.949L73.7207 533.153L97.5304 533.15C101.506 533.15 105.319 534.709 108.132 537.483C110.943 540.258 112.523 544.021 112.523 547.946Z" fill="#2ECC71"/>
<path d="M112.523 202.503C127.172 202.503 139.046 190.782 139.046 176.324C139.046 161.865 127.172 150.145 112.523 150.145C97.8744 150.145 85.9993 161.865 85.9993 176.324C85.9993 190.782 97.8744 202.503 112.523 202.503Z" fill="#FFB8B8"/>
<path d="M203.217 347.056C203.031 345.607 202.527 344.215 201.738 342.978C200.948 341.742 199.894 340.692 198.649 339.901C197.404 339.11 195.999 338.6 194.531 338.402C193.065 338.206 191.571 338.33 190.159 338.765L175.335 321.226L162.34 327.518L183.625 351.995C184.523 354.291 186.241 356.18 188.457 357.309C190.672 358.437 193.229 358.724 195.644 358.115C198.058 357.505 200.163 356.044 201.559 354.006C202.955 351.968 203.545 349.495 203.217 347.056Z" fill="#FFB8B8"/>
<path d="M75.6428 364.794C76.2744 363.473 76.6049 362.031 76.6108 360.57C76.6167 359.108 76.298 357.664 75.6769 356.337C75.056 355.011 74.148 353.835 73.0168 352.892C71.8856 351.95 70.5587 351.263 69.1297 350.882L66.1537 328.232L51.7671 326.66L56.425 358.588C55.9345 360.999 56.3574 363.505 57.6135 365.631C58.8698 367.755 60.8721 369.352 63.2409 370.116C65.6098 370.881 68.1806 370.762 70.4663 369.781C72.7521 368.801 74.594 367.026 75.6428 364.794Z" fill="#FFB8B8"/>
<path d="M55.5092 350.945C54.3441 350.944 53.2179 350.531 52.3358 349.78C51.4536 349.028 50.8741 347.99 50.7028 346.852L43.6215 299.784C42.7317 293.859 43.4514 287.808 45.707 282.247L67.4472 228.697C68.3363 226.506 69.7949 224.587 71.676 223.131C73.5573 221.675 75.7942 220.734 78.1611 220.404C80.5282 220.075 82.9415 220.367 85.1576 221.251C87.3736 222.136 89.3139 223.582 90.7827 225.444H90.7828C92.3007 227.362 93.2596 229.654 93.5565 232.07C93.8533 234.488 93.4767 236.938 92.4674 239.159L82.2185 261.786C70.7245 287.17 66.3877 315.147 69.6659 342.762C69.7985 343.876 69.5309 345.001 68.9096 345.941C68.2885 346.88 67.3529 347.575 66.2659 347.905L56.9365 350.734C56.4741 350.873 55.993 350.945 55.5092 350.945Z" fill="black"/>
<path d="M106.065 202.502C102.073 202.588 98.1079 201.837 94.4305 200.302C90.753 198.767 87.4463 196.481 84.7276 193.595C82.0089 190.708 79.9399 187.287 78.6564 183.555C77.373 179.823 76.9041 175.866 77.2807 171.942C77.6573 168.019 78.8709 164.219 80.8415 160.791C82.8123 157.363 85.4955 154.386 88.7151 152.055C91.9345 149.724 95.6173 148.092 99.5215 147.266C103.426 146.44 107.463 146.439 111.367 147.261C117.201 143.766 123.981 141.414 130.778 142.012C137.575 142.611 144.298 146.593 146.839 152.845C149.381 159.095 146.65 167.334 140.33 169.874C136.278 171.503 131.703 170.713 127.38 170.057C123.056 169.4 118.339 168.97 114.575 171.173C110.813 173.375 109.121 179.28 112.491 182.033C114.277 183.55 115.554 185.569 116.149 187.82C116.744 190.07 116.629 192.447 115.822 194.632C114.128 198.955 109.505 202.429 106.065 202.502Z" fill="black"/>
<path d="M72.7723 527.164C72.1232 527.164 71.4807 527.036 70.8824 526.788C70.2842 526.539 69.7426 526.174 69.2896 525.715C68.8366 525.256 68.4813 524.713 68.2447 524.116C68.0081 523.519 67.895 522.882 67.9121 522.241L72.6305 345.499L73.145 345.488L151.143 343.81L164.61 515.67C164.685 516.715 164.409 517.757 163.828 518.635C163.247 519.512 162.392 520.18 161.391 520.532L161.243 520.562L145.935 521.485C145.289 521.701 144.605 521.779 143.926 521.717C143.248 521.654 142.591 521.45 141.997 521.121C141.403 520.79 140.886 520.342 140.48 519.801C140.073 519.261 139.787 518.643 139.638 517.987L114.685 407.777C114.602 407.415 114.394 407.091 114.096 406.862C113.799 406.634 113.43 406.516 113.053 406.528C112.676 406.54 112.315 406.68 112.033 406.926C111.75 407.173 111.563 407.507 111.504 407.875L93.0683 522.34C92.8894 523.424 92.3406 524.415 91.5128 525.15C90.685 525.884 89.628 526.317 88.5167 526.378L73.0176 527.158C72.9357 527.162 72.854 527.164 72.7723 527.164Z" fill="black"/>
<path d="M95.7277 360.128C86.0216 360.128 77.5453 358.681 72.8649 354.552C69.857 351.898 68.5562 348.289 68.9987 343.825C70.6621 327.044 67.7798 290.266 65.0689 262.367C64.448 255.824 65.1518 249.225 67.1393 242.952C69.1267 236.68 72.3582 230.86 76.6455 225.833C80.7709 220.961 85.8495 216.962 91.5774 214.074C97.3053 211.185 103.565 209.467 109.981 209.022C118.91 208.395 139.82 206.931 146.32 223.362C156.083 248.044 151.308 259.362 146.69 270.309C142.767 279.609 138.71 289.224 143.683 307.283C146.43 317.269 149.757 327.09 153.647 336.699C156.34 343.516 157.691 346.936 156.444 349.17C155.459 350.933 153.003 351.7 148.816 352.501C147.448 352.762 145.642 353.142 143.489 353.593C132.547 355.888 112.337 360.128 95.7277 360.128Z" fill="black"/>
<path d="M175.416 344.659C175.379 344.659 175.341 344.659 175.305 344.658C174.605 344.643 173.917 344.478 173.287 344.175C172.658 343.874 172.103 343.44 171.659 342.906L144.165 309.838C138.295 302.773 134.429 294.297 132.963 285.274L124.498 233.055C124.213 231.294 124.286 229.495 124.714 227.762C125.142 226.029 125.915 224.398 126.989 222.963C128.063 221.53 129.417 220.321 130.97 219.408C132.523 218.497 134.244 217.9 136.034 217.653C137.823 217.406 139.645 217.513 141.392 217.969C143.138 218.426 144.775 219.221 146.207 220.309C147.639 221.397 148.837 222.756 149.73 224.307C150.623 225.857 151.194 227.568 151.409 229.338L154.774 257.035C157.887 282.62 167.94 306.901 183.873 327.314L185.796 329.777C186.489 330.666 186.846 331.767 186.802 332.889C186.759 334.01 186.319 335.08 185.557 335.915L179.027 343.073C178.571 343.572 178.014 343.972 177.392 344.246C176.77 344.519 176.097 344.659 175.416 344.659Z" fill="black"/>
<path d="M307.252 100.014C317.239 100.014 325.335 91.9348 325.335 81.969C325.335 72.0031 317.239 63.9241 307.252 63.9241C297.264 63.9241 289.167 72.0031 289.167 81.969C289.167 91.9348 297.264 100.014 307.252 100.014Z" fill="#3F3D56"/>
<path d="M310.868 91.5929H307.186V77.7459C305.827 79.0086 304.203 79.9592 302.429 80.5302V77.1961C303.568 76.7822 304.627 76.1786 305.559 75.4115C306.616 74.6308 307.421 73.5661 307.879 72.345H310.868V91.5929Z" fill="#3F3D56"/>
<path d="M307.252 100.014C317.239 100.014 325.335 91.9348 325.335 81.969C325.335 72.0031 317.239 63.9241 307.252 63.9241C297.264 63.9241 289.167 72.0031 289.167 81.969C289.167 91.9348 297.264 100.014 307.252 100.014Z" fill="#2ECC71"/>
<path d="M310.868 91.5929H307.186V77.7459C305.827 79.0086 304.203 79.9592 302.429 80.5302V77.1961C303.568 76.7822 304.627 76.1786 305.559 75.4115C306.616 74.6308 307.421 73.5661 307.879 72.345H310.868V91.5929Z" fill="white"/>
<path d="M481.37 145.149C491.468 145.149 499.652 137.07 499.652 127.104C499.652 117.138 491.468 109.06 481.37 109.06C471.273 109.06 463.089 117.138 463.089 127.104C463.089 137.07 471.273 145.149 481.37 145.149Z" fill="#3F3D56"/>
<path d="M479.199 130.054C479.136 131.023 479.413 131.983 479.983 132.774C480.186 133.059 480.453 133.296 480.765 133.462C481.076 133.629 481.421 133.721 481.775 133.732C482.089 133.735 482.397 133.666 482.679 133.53C482.96 133.393 483.205 133.194 483.394 132.948C483.893 132.184 484.121 131.281 484.041 130.376C484.119 129.426 483.874 128.478 483.343 127.682C483.143 127.42 482.884 127.207 482.586 127.059C482.289 126.91 481.962 126.831 481.63 126.828C481.296 126.824 480.967 126.895 480.666 127.037C480.366 127.178 480.102 127.386 479.895 127.643C479.382 128.341 479.136 129.195 479.199 130.054ZM487.129 122.173L483.742 122.559C483.715 121.971 483.487 121.409 483.094 120.966C482.915 120.793 482.703 120.659 482.47 120.57C482.237 120.482 481.987 120.441 481.738 120.451C481.363 120.456 480.997 120.553 480.67 120.732C480.342 120.912 480.066 121.168 479.864 121.48C479.188 122.807 478.856 124.278 478.899 125.762C479.275 125.264 479.766 124.859 480.33 124.581C480.895 124.304 481.517 124.163 482.148 124.166C482.864 124.164 483.571 124.317 484.219 124.614C484.868 124.913 485.443 125.349 485.901 125.89C486.974 127.125 487.532 128.714 487.463 130.338C487.546 132.037 486.958 133.702 485.821 134.98C485.242 135.571 484.542 136.032 483.767 136.332C482.992 136.632 482.161 136.765 481.329 136.72C480.499 136.675 479.687 136.455 478.95 136.074C478.213 135.692 477.567 135.159 477.057 134.51C475.87 133.032 475.276 130.609 475.276 127.24C475.276 123.785 475.895 121.294 477.132 119.769C477.694 119.039 478.424 118.451 479.261 118.054C480.099 117.655 481.021 117.459 481.949 117.48C483.21 117.436 484.44 117.865 485.391 118.683C486.365 119.61 486.979 120.845 487.129 122.173Z" fill="#3F3D56"/>
<path d="M481.37 145.149C491.468 145.149 499.652 137.07 499.652 127.104C499.652 117.138 491.468 109.06 481.37 109.06C471.273 109.06 463.089 117.138 463.089 127.104C463.089 137.07 471.273 145.149 481.37 145.149Z" fill="#2ECC71"/>
<path d="M479.199 130.054C479.136 131.023 479.413 131.983 479.983 132.774C480.186 133.059 480.453 133.296 480.765 133.462C481.076 133.629 481.421 133.721 481.775 133.732C482.089 133.735 482.397 133.666 482.679 133.53C482.96 133.393 483.205 133.194 483.394 132.948C483.893 132.184 484.121 131.281 484.041 130.376C484.119 129.426 483.874 128.478 483.343 127.682C483.143 127.42 482.884 127.207 482.586 127.059C482.289 126.91 481.962 126.831 481.63 126.828C481.296 126.824 480.967 126.895 480.666 127.037C480.366 127.178 480.102 127.386 479.895 127.643C479.382 128.341 479.136 129.195 479.199 130.054ZM487.129 122.173L483.742 122.559C483.715 121.971 483.487 121.409 483.094 120.966C482.915 120.793 482.703 120.659 482.47 120.57C482.237 120.482 481.987 120.441 481.738 120.451C481.363 120.456 480.997 120.553 480.67 120.732C480.342 120.912 480.066 121.168 479.864 121.48C479.188 122.807 478.856 124.278 478.899 125.762C479.275 125.264 479.766 124.859 480.33 124.581C480.895 124.304 481.517 124.163 482.148 124.166C482.864 124.164 483.571 124.317 484.219 124.614C484.868 124.913 485.443 125.349 485.901 125.89C486.974 127.125 487.532 128.714 487.463 130.338C487.546 132.037 486.958 133.702 485.821 134.98C485.242 135.571 484.542 136.032 483.767 136.332C482.992 136.632 482.161 136.765 481.329 136.72C480.499 136.675 479.687 136.455 478.95 136.074C478.213 135.692 477.567 135.159 477.057 134.51C475.87 133.032 475.276 130.609 475.276 127.24C475.276 123.785 475.895 121.294 477.132 119.769C477.694 119.039 478.424 118.451 479.261 118.054C480.099 117.655 481.021 117.459 481.949 117.48C483.21 117.436 484.44 117.865 485.391 118.683C486.365 119.61 486.979 120.845 487.129 122.173Z" fill="white"/>
<path d="M404.433 284.564C414.53 284.564 422.716 276.486 422.716 266.52C422.716 256.554 414.53 248.475 404.433 248.475C394.336 248.475 386.151 256.554 386.151 266.52C386.151 276.486 394.336 284.564 404.433 284.564Z" fill="#3F3D56"/>
<path d="M402.17 262.01C402.151 262.316 402.194 262.622 402.298 262.911C402.402 263.2 402.562 263.465 402.771 263.692C402.981 263.896 403.231 264.055 403.507 264.159C403.781 264.263 404.076 264.309 404.369 264.296C404.667 264.31 404.964 264.263 405.243 264.158C405.522 264.053 405.775 263.892 405.987 263.686C406.198 263.459 406.36 263.192 406.464 262.902C406.568 262.611 406.612 262.304 406.594 261.996C406.609 261.7 406.563 261.403 406.46 261.124C406.358 260.845 406.199 260.589 405.995 260.371C405.787 260.166 405.539 260.006 405.266 259.901C404.994 259.796 404.701 259.748 404.408 259.761C404.108 259.746 403.808 259.794 403.527 259.9C403.246 260.006 402.99 260.168 402.778 260.377C402.571 260.596 402.412 260.852 402.307 261.133C402.203 261.413 402.157 261.712 402.17 262.01ZM401.841 270.079C401.791 270.92 402.058 271.749 402.594 272.405C402.825 272.671 403.113 272.885 403.437 273.029C403.762 273.174 404.116 273.246 404.471 273.239C404.816 273.248 405.158 273.179 405.473 273.04C405.787 272.901 406.067 272.694 406.292 272.437C406.813 271.777 407.069 270.952 407.012 270.117C407.051 269.342 406.788 268.582 406.28 267.992C406.049 267.732 405.762 267.525 405.441 267.385C405.12 267.247 404.771 267.178 404.42 267.187C404.045 267.163 403.67 267.234 403.329 267.394C402.989 267.554 402.697 267.797 402.48 268.1C402.064 268.678 401.841 269.37 401.841 270.079ZM401.437 265.646C400.611 265.328 399.909 264.759 399.433 264.02C399.017 263.336 398.8 262.551 398.808 261.753C398.788 261.105 398.907 260.46 399.157 259.86C399.405 259.26 399.78 258.719 400.255 258.27C401.434 257.379 402.878 256.896 404.364 256.896C405.85 256.896 407.294 257.379 408.473 258.27C408.951 258.716 409.329 259.258 409.581 259.858C409.833 260.458 409.953 261.104 409.933 261.753C409.951 262.58 409.717 263.392 409.261 264.086C408.806 264.78 408.15 265.324 407.379 265.646C408.328 265.994 409.143 266.628 409.707 267.458C410.272 268.288 410.559 269.272 410.528 270.271C410.571 271.057 410.446 271.844 410.16 272.578C409.874 273.314 409.433 273.98 408.867 274.535C408.301 275.09 407.622 275.52 406.876 275.797C406.129 276.074 405.331 276.193 404.535 276.144C403.014 276.197 401.523 275.72 400.324 274.795C399.671 274.27 399.151 273.602 398.807 272.843C398.462 272.084 398.302 271.256 398.339 270.424C398.33 269.44 398.588 268.472 399.085 267.62C399.63 266.725 400.456 266.033 401.437 265.646Z" fill="#3F3D56"/>
<path d="M404.433 284.564C414.53 284.564 422.716 276.486 422.716 266.52C422.716 256.554 414.53 248.475 404.433 248.475C394.336 248.475 386.151 256.554 386.151 266.52C386.151 276.486 394.336 284.564 404.433 284.564Z" fill="#2ECC71"/>
<path d="M402.17 262.01C402.151 262.316 402.194 262.622 402.298 262.911C402.402 263.2 402.562 263.465 402.771 263.692C402.981 263.896 403.231 264.055 403.507 264.159C403.781 264.263 404.076 264.309 404.369 264.296C404.667 264.31 404.964 264.263 405.243 264.158C405.522 264.053 405.775 263.892 405.987 263.686C406.198 263.459 406.36 263.192 406.464 262.902C406.568 262.611 406.612 262.304 406.594 261.996C406.609 261.7 406.563 261.403 406.46 261.124C406.358 260.845 406.199 260.589 405.995 260.371C405.787 260.166 405.539 260.006 405.266 259.901C404.994 259.796 404.701 259.748 404.408 259.761C404.108 259.746 403.808 259.794 403.527 259.9C403.246 260.006 402.99 260.168 402.778 260.377C402.571 260.596 402.412 260.852 402.307 261.133C402.203 261.413 402.157 261.712 402.17 262.01ZM401.841 270.079C401.791 270.92 402.058 271.749 402.594 272.405C402.825 272.671 403.113 272.885 403.437 273.029C403.762 273.174 404.116 273.246 404.471 273.239C404.816 273.248 405.158 273.179 405.473 273.04C405.787 272.901 406.067 272.694 406.292 272.437C406.813 271.777 407.069 270.952 407.012 270.117C407.051 269.342 406.788 268.582 406.28 267.992C406.049 267.732 405.762 267.525 405.441 267.385C405.12 267.247 404.771 267.178 404.42 267.187C404.045 267.163 403.67 267.234 403.329 267.394C402.989 267.554 402.697 267.797 402.48 268.1C402.064 268.678 401.841 269.37 401.841 270.079ZM401.437 265.646C400.611 265.328 399.909 264.759 399.433 264.02C399.017 263.336 398.8 262.551 398.808 261.753C398.788 261.105 398.907 260.46 399.157 259.86C399.405 259.26 399.78 258.719 400.255 258.27C401.434 257.379 402.878 256.896 404.364 256.896C405.85 256.896 407.294 257.379 408.473 258.27C408.951 258.716 409.329 259.258 409.581 259.858C409.833 260.458 409.953 261.104 409.933 261.753C409.951 262.58 409.717 263.392 409.261 264.086C408.806 264.78 408.15 265.324 407.379 265.646C408.328 265.994 409.143 266.628 409.707 267.458C410.272 268.288 410.559 269.272 410.528 270.271C410.571 271.057 410.446 271.844 410.16 272.578C409.874 273.314 409.433 273.98 408.867 274.535C408.301 275.09 407.622 275.52 406.876 275.797C406.129 276.074 405.331 276.193 404.535 276.144C403.014 276.197 401.523 275.72 400.324 274.795C399.671 274.27 399.151 273.602 398.807 272.843C398.462 272.084 398.302 271.256 398.339 270.424C398.33 269.44 398.588 268.472 399.085 267.62C399.63 266.725 400.456 266.033 401.437 265.646Z" fill="white"/>
<path d="M250.54 549.97H1.07991C0.793503 549.97 0.518806 549.858 0.316282 549.659C0.113759 549.459 0 549.188 0 548.904C0 548.622 0.113759 548.351 0.316282 548.151C0.518806 547.951 0.793503 547.838 1.07991 547.838H250.54C250.826 547.838 251.102 547.951 251.303 548.151C251.506 548.351 251.62 548.622 251.62 548.904C251.62 549.188 251.506 549.459 251.303 549.659C251.102 549.858 250.826 549.97 250.54 549.97Z" fill="#CCCCCC"/>
<path d="M369.331 197.19C353.229 197.19 340.173 208.042 340.173 221.425V240.274C340.173 244.745 344.514 248.353 349.892 248.353H359.611V226.81H346.652V221.425C346.652 211.004 356.793 202.576 369.331 202.576C381.868 202.576 392.009 211.004 392.009 221.425V226.81H379.05V248.353H388.769C394.147 248.353 398.488 244.745 398.488 240.274V221.425C398.488 208.042 385.432 197.19 369.331 197.19Z" fill="#2ECC71"/>
<path d="M475.555 67.7907H452.456L462.468 59.3744L460.338 57.5581L448.164 67.7907L435.99 57.5581L433.829 59.3744L443.873 67.7907H420.773C417.425 67.7907 414.687 70.0674 414.687 72.907V103.605C414.687 106.419 417.425 108.721 420.773 108.721H475.555C478.903 108.721 481.641 106.419 481.641 103.605V72.907C481.641 70.0674 478.903 67.7907 475.555 67.7907ZM475.555 103.605H420.773V72.907H475.555V103.605ZM439.033 78.0232V98.4884L460.338 88.2558L439.033 78.0232Z" fill="#2ECC71"/>
<path d="M251.53 25.4037H246.22V69.5494C246.22 73.018 248.61 75.856 251.53 75.856H288.696V69.5494H251.53V25.4037ZM294.006 12.7907H262.149C259.229 12.7907 256.839 15.6286 256.839 19.0973V56.9364C256.839 60.4049 259.229 63.2429 262.149 63.2429H294.006C296.926 63.2429 299.316 60.4049 299.316 56.9364V19.0973C299.316 15.6286 296.926 12.7907 294.006 12.7907ZM291.352 41.1701H264.803V34.8635H291.352V41.1701ZM280.732 53.7831H264.803V47.4766H280.732V53.7831ZM291.352 28.5571H264.803V22.2505H291.352V28.5571Z" fill="#2ECC71"/>
</svg>
