<svg width="650" height="550" viewBox="0 0 650 550" fill="none" xmlns="http://www.w3.org/2000/svg">
<path d="M271.827 312.792C272.242 312.929 272.62 313.126 272.936 313.372C273.251 313.619 273.5 313.91 273.668 314.23C273.836 314.55 273.918 314.892 273.913 315.236C273.907 315.581 273.812 315.92 273.632 316.236L268.944 324.503L269.475 324.71L266.278 330.321L265.767 330.106L248.973 359.722C248.398 360.736 247.357 361.557 246.044 362.03C244.732 362.504 243.236 362.599 241.838 362.298L215.726 356.664C215.09 356.528 214.502 356.287 214 355.959C213.501 355.63 213.102 355.223 212.831 354.765C212.56 354.308 212.424 353.811 212.432 353.309C212.442 352.807 212.595 352.312 212.883 351.86L239.202 310.422C239.755 309.551 240.681 308.85 241.83 308.432C242.977 308.014 244.278 307.905 245.518 308.124L271.212 312.642C271.422 312.677 271.629 312.727 271.827 312.792Z" fill="#3F3D56"/>
<path d="M250.093 311.317L263.6 313.692C263.842 313.734 264.098 313.715 264.325 313.637C264.553 313.559 264.739 313.425 264.857 313.258C264.989 313.069 265.201 312.918 265.46 312.83C265.717 312.741 266.006 312.719 266.281 312.768L269.127 313.268C269.514 313.336 269.878 313.468 270.192 313.655C270.505 313.842 270.761 314.079 270.94 314.348C271.122 314.618 271.221 314.914 271.234 315.217C271.246 315.52 271.171 315.82 271.013 316.099L246.708 359.051C246.406 359.584 245.856 360.014 245.164 360.26C244.472 360.505 243.684 360.547 242.953 360.379L217.023 354.44C216.693 354.364 216.387 354.235 216.128 354.061C215.869 353.888 215.662 353.673 215.522 353.434C215.382 353.194 215.311 352.935 215.316 352.671C215.32 352.409 215.398 352.151 215.547 351.914L241.237 310.74C241.616 310.133 242.256 309.644 243.052 309.35C243.848 309.058 244.751 308.982 245.613 309.133L248.612 309.661C248.539 310.027 248.651 310.401 248.925 310.708C249.198 311.015 249.615 311.233 250.093 311.317Z" fill="#2ECC71"/>
<path d="M355.375 89.5349C343.714 89.5349 332.313 86.9093 322.616 81.9902C312.921 77.0711 305.362 70.0794 300.9 61.8992C296.438 53.719 295.27 44.7178 297.544 36.0337C299.82 27.3497 305.436 19.3729 313.682 13.1121C321.928 6.85122 332.434 2.58754 343.873 0.860183C355.31 -0.86718 367.166 0.0193694 377.939 3.40771C388.714 6.79605 397.922 12.534 404.401 19.8959C410.88 27.2579 414.338 35.9133 414.338 44.7675C414.321 56.6364 408.103 68.0153 397.049 76.4079C385.995 84.8005 371.008 89.5215 355.375 89.5349ZM355.375 2.13176C344.268 2.13176 333.412 4.6323 324.177 9.31716C314.943 14.0021 307.745 20.6608 303.494 28.4514C299.244 36.2421 298.132 44.8148 300.299 53.0852C302.465 61.3557 307.814 68.9527 315.667 74.9155C323.52 80.8782 333.527 84.9388 344.42 86.5839C355.313 88.229 366.604 87.3847 376.865 84.1577C387.126 80.9307 395.896 75.466 402.067 68.4545C408.237 61.4431 411.53 53.1999 411.53 44.7675C411.513 33.4637 405.592 22.6265 395.064 14.6336C384.538 6.64061 370.263 2.14454 355.375 2.13176Z" fill="#CCCCCC"/>
<path d="M582.804 131.105C571.144 131.105 559.743 128.479 550.046 123.56C540.351 118.641 532.792 111.649 528.329 103.469C523.868 95.2888 522.7 86.2875 524.974 77.6035C527.25 68.9195 532.865 60.9426 541.112 54.6818C549.358 48.421 559.863 44.1573 571.302 42.4299C582.74 40.7027 594.596 41.5892 605.369 44.9775C616.144 48.3659 625.352 54.1038 631.831 61.4658C638.31 68.8277 641.768 77.4831 641.768 86.3372C641.751 98.2062 635.533 109.585 624.479 117.978C613.425 126.37 598.438 131.091 582.804 131.105ZM582.804 43.7015C571.698 43.7015 560.842 46.2021 551.607 50.8869C542.372 55.5718 535.175 62.2306 530.924 70.0213C526.674 77.8119 525.562 86.3845 527.728 94.655C529.895 102.926 535.243 110.522 543.097 116.485C550.95 122.447 560.957 126.509 571.85 128.153C582.743 129.799 594.034 128.955 604.295 125.727C614.556 122.501 623.326 117.036 629.496 110.025C635.666 103.013 638.96 94.7698 638.96 86.3372C638.943 75.0334 633.021 64.1963 622.494 56.2034C611.967 48.2104 597.693 43.7143 582.804 43.7015Z" fill="#CCCCCC"/>
<path d="M477.513 272.868C465.852 272.868 454.451 270.243 444.754 265.324C435.059 260.405 427.501 253.413 423.038 245.233C418.576 237.052 417.408 228.051 419.682 219.367C421.958 210.683 427.574 202.706 435.82 196.446C444.066 190.185 454.572 185.921 466.011 184.194C477.448 182.466 489.304 183.353 500.077 186.741C510.852 190.129 520.06 195.867 526.539 203.229C533.018 210.591 536.476 219.246 536.476 228.101C536.459 239.969 530.241 251.349 519.187 259.742C508.133 268.134 493.146 272.854 477.513 272.868ZM477.513 185.465C466.406 185.465 455.55 187.966 446.315 192.65C437.081 197.335 429.883 203.995 425.632 211.785C421.382 219.576 420.271 228.148 422.437 236.419C424.603 244.689 429.952 252.286 437.805 258.248C445.658 264.211 455.665 268.272 466.558 269.917C477.451 271.563 488.742 270.718 499.003 267.491C509.264 264.264 518.035 258.8 524.205 251.788C530.375 244.777 533.668 236.533 533.668 228.101C533.651 216.797 527.73 205.96 517.202 197.967C506.676 189.974 492.401 185.478 477.513 185.465Z" fill="#CCCCCC"/>
<path d="M185.786 536.634L201.836 536.633L209.469 489.631L185.781 489.632L185.786 536.634Z" fill="#FFB8B8"/>
<path d="M232.79 547.946L182.348 547.949L182.347 533.153L213.298 533.15C215.858 533.15 218.393 533.533 220.757 534.276C223.121 535.02 225.271 536.109 227.08 537.483C228.89 538.857 230.326 540.488 231.305 542.283C232.285 544.078 232.789 546.003 232.79 547.946Z" fill="#2ECC71"/>
<path d="M99.2759 536.634L115.327 536.633L122.958 489.631L99.2703 489.632L99.2759 536.634Z" fill="#FFB8B8"/>
<path d="M146.279 547.946L95.8386 547.949L95.8369 533.153L126.79 533.15C131.958 533.15 136.915 534.709 140.571 537.483C144.226 540.258 146.279 544.021 146.279 547.946Z" fill="#2ECC71"/>
<path d="M146.279 202.503C165.323 202.503 180.76 190.782 180.76 176.324C180.76 161.865 165.323 150.145 146.279 150.145C127.237 150.145 111.799 161.865 111.799 176.324C111.799 190.782 127.237 202.503 146.279 202.503Z" fill="#FFB8B8"/>
<path d="M264.182 347.056C263.941 345.607 263.285 344.215 262.259 342.978C261.233 341.742 259.862 340.692 258.244 339.901C256.625 339.11 254.799 338.6 252.891 338.402C250.984 338.206 249.043 338.33 247.206 338.765L227.935 321.226L211.042 327.518L238.713 351.995C239.88 354.291 242.113 356.18 244.994 357.309C247.873 358.437 251.198 358.724 254.337 358.115C257.476 357.505 260.212 356.044 262.027 354.006C263.841 351.968 264.609 349.495 264.182 347.056Z" fill="#FFB8B8"/>
<path d="M98.3355 364.794C99.1567 363.473 99.5863 362.031 99.594 360.57C99.6016 359.108 99.1873 357.664 98.3799 356.337C97.5727 355.011 96.3923 353.835 94.9217 352.892C93.4511 351.95 91.7262 351.264 89.8685 350.882L85.9997 328.232L67.2971 326.66L73.3524 358.588C72.7147 360.999 73.2645 363.505 74.8975 365.631C76.5306 367.755 79.1336 369.352 82.213 370.116C85.2926 370.881 88.6347 370.762 91.6061 369.781C94.5776 368.801 96.9721 367.026 98.3355 364.794Z" fill="#FFB8B8"/>
<path d="M72.162 350.945C70.6473 350.944 69.1834 350.531 68.0365 349.78C66.8897 349.028 66.1364 347.99 65.9137 346.852L56.708 299.784C55.5512 293.859 56.4869 287.808 59.4192 282.247L87.6814 228.697C88.8372 226.506 90.7335 224.587 93.1789 223.131C95.6245 221.675 98.5325 220.734 101.61 220.404C104.687 220.075 107.824 220.367 110.705 221.251C113.586 222.136 116.108 223.582 118.018 225.444H118.018C119.991 227.362 121.238 229.654 121.624 232.07C122.009 234.488 121.52 236.938 120.208 239.159L106.884 261.786C91.9419 287.17 86.3041 315.147 90.5657 342.762C90.7381 343.876 90.3902 345.001 89.5826 345.941C88.775 346.88 87.5589 347.575 86.1457 347.905L74.0175 350.734C73.4164 350.873 72.7909 350.945 72.162 350.945Z" fill="black"/>
<path d="M137.885 202.502C132.695 202.588 127.54 201.837 122.76 200.302C117.979 198.767 113.68 196.481 110.146 193.595C106.612 190.708 103.922 187.287 102.253 183.555C100.585 179.823 99.9754 175.866 100.465 171.942C100.955 168.019 102.532 164.219 105.094 160.791C107.656 157.363 111.144 154.386 115.33 152.055C119.515 149.724 124.303 148.092 129.378 147.266C134.453 146.44 139.702 146.439 144.777 147.261C152.361 143.766 161.176 141.414 170.012 142.012C178.848 142.611 187.587 146.593 190.891 152.845C194.195 159.095 190.645 167.334 182.43 169.874C177.162 171.503 171.214 170.713 165.594 170.057C159.973 169.4 153.841 168.97 148.948 171.173C144.057 173.375 141.857 179.28 146.239 182.033C148.561 183.55 150.22 185.569 150.994 187.82C151.767 190.07 151.618 192.447 150.568 194.632C148.367 198.955 142.357 202.429 137.885 202.502Z" fill="black"/>
<path d="M94.6042 527.164C93.7603 527.164 92.925 527.036 92.1473 526.788C91.3697 526.539 90.6656 526.174 90.0767 525.715C89.4877 525.256 89.0259 524.713 88.7183 524.116C88.4107 523.519 88.2637 522.882 88.2859 522.241L94.4199 345.499L95.0887 345.488L196.487 343.81L213.993 515.67C214.09 516.715 213.732 517.757 212.977 518.635C212.221 519.512 211.11 520.18 209.808 520.532L209.616 520.562L189.716 521.485C188.876 521.701 187.986 521.779 187.105 521.717C186.223 521.654 185.368 521.45 184.596 521.121C183.824 520.79 183.153 520.342 182.625 519.801C182.095 519.261 181.723 518.643 181.53 517.987L149.09 407.777C148.983 407.415 148.712 407.091 148.325 406.862C147.939 406.634 147.459 406.516 146.969 406.528C146.479 406.54 146.01 406.68 145.644 406.926C145.276 407.173 145.031 407.507 144.956 407.875L120.989 522.34C120.756 523.424 120.043 524.415 118.967 525.15C117.891 525.884 116.517 526.317 115.072 526.378L94.923 527.158C94.8166 527.162 94.7103 527.164 94.6042 527.164Z" fill="black"/>
<path d="M124.446 360.128C111.828 360.128 100.809 358.681 94.7244 354.552C90.8141 351.898 89.1232 348.289 89.6983 343.825C91.8607 327.044 88.1138 290.266 84.5896 262.367C83.7825 255.824 84.6974 249.225 87.2811 242.952C89.8648 236.68 94.0657 230.86 99.6393 225.833C105.002 220.961 111.604 216.962 119.051 214.074C126.497 211.185 134.634 209.467 142.975 209.022C154.584 208.395 181.766 206.931 190.216 223.362C202.908 248.044 196.7 259.362 190.697 270.309C185.597 279.609 180.323 289.224 186.787 307.283C190.359 317.269 194.684 327.09 199.741 336.699C203.242 343.516 204.999 346.936 203.377 349.17C202.097 350.933 198.904 351.7 193.462 352.501C191.683 352.762 189.334 353.142 186.536 353.594C172.311 355.888 146.038 360.128 124.446 360.128Z" fill="black"/>
<path d="M228.041 344.659C227.993 344.659 227.944 344.659 227.896 344.658C226.986 344.643 226.092 344.478 225.274 344.175C224.455 343.874 223.734 343.44 223.157 342.906L187.415 309.838C179.783 302.773 174.758 294.297 172.852 285.274L161.847 233.055C161.477 231.294 161.572 229.495 162.128 227.762C162.684 226.029 163.689 224.398 165.086 222.963C166.482 221.53 168.242 220.321 170.261 219.408C172.28 218.497 174.517 217.9 176.844 217.653C179.17 217.406 181.538 217.513 183.81 217.969C186.08 218.426 188.208 219.221 190.07 220.309C191.931 221.397 193.488 222.756 194.649 224.307C195.81 225.857 196.553 227.568 196.832 229.338L201.207 257.035C205.253 282.62 218.322 306.901 239.035 327.314L241.535 329.777C242.436 330.666 242.899 331.767 242.843 332.889C242.787 334.01 242.214 335.08 241.225 335.915L232.735 343.073C232.143 343.572 231.418 343.972 230.61 344.246C229.801 344.518 228.927 344.659 228.041 344.659Z" fill="black"/>
<path d="M399.427 100.014C412.41 100.014 422.935 91.9349 422.935 81.969C422.935 72.0031 412.41 63.9241 399.427 63.9241C386.443 63.9241 375.918 72.0031 375.918 81.969C375.918 91.9349 386.443 100.014 399.427 100.014Z" fill="#3F3D56"/>
<path d="M404.129 91.5929H399.341V77.7459C397.575 79.0086 395.464 79.9592 393.157 80.5302V77.1961C394.638 76.7822 396.016 76.1786 397.227 75.4115C398.6 74.6308 399.647 73.5661 400.243 72.345H404.129V91.5929Z" fill="#3F3D56"/>
<path d="M399.427 100.014C412.41 100.014 422.935 91.9349 422.935 81.969C422.935 72.0031 412.41 63.9241 399.427 63.9241C386.443 63.9241 375.918 72.0031 375.918 81.969C375.918 91.9349 386.443 100.014 399.427 100.014Z" fill="#2ECC71"/>
<path d="M404.129 91.5929H399.341V77.7459C397.575 79.0086 395.464 79.9592 393.157 80.5302V77.1961C394.638 76.7822 396.016 76.1786 397.227 75.4115C398.6 74.6308 399.647 73.5661 400.243 72.345H404.129V91.5929Z" fill="white"/>
<path d="M625.781 145.149C638.908 145.149 649.548 137.07 649.548 127.104C649.548 117.138 638.908 109.06 625.781 109.06C612.655 109.06 602.015 117.138 602.015 127.104C602.015 137.07 612.655 145.149 625.781 145.149Z" fill="#3F3D56"/>
<path d="M622.958 130.054C622.877 131.023 623.236 131.983 623.978 132.774C624.241 133.059 624.588 133.296 624.994 133.462C625.398 133.629 625.847 133.721 626.308 133.732C626.715 133.735 627.117 133.666 627.483 133.53C627.848 133.393 628.167 133.194 628.412 132.948C629.061 132.184 629.357 131.281 629.253 130.376C629.354 129.426 629.036 128.478 628.346 127.682C628.085 127.42 627.75 127.207 627.362 127.059C626.976 126.91 626.551 126.831 626.118 126.828C625.685 126.824 625.256 126.895 624.866 127.037C624.476 127.178 624.132 127.386 623.864 127.643C623.197 128.341 622.877 129.195 622.958 130.054ZM633.267 122.172L628.864 122.559C628.829 121.971 628.533 121.409 628.022 120.966C627.789 120.793 627.514 120.659 627.211 120.57C626.907 120.482 626.583 120.441 626.259 120.451C625.772 120.456 625.296 120.553 624.87 120.732C624.445 120.912 624.086 121.168 623.823 121.48C622.944 122.807 622.513 124.278 622.568 125.762C623.058 125.264 623.695 124.859 624.43 124.581C625.164 124.304 625.972 124.163 626.792 124.166C627.723 124.164 628.643 124.317 629.485 124.614C630.329 124.913 631.076 125.349 631.671 125.89C633.066 127.125 633.792 128.714 633.702 130.338C633.81 132.037 633.045 133.702 631.567 134.98C630.814 135.571 629.905 136.032 628.897 136.332C627.89 136.632 626.809 136.765 625.728 136.72C624.649 136.675 623.593 136.455 622.635 136.074C621.677 135.692 620.837 135.159 620.174 134.51C618.632 133.032 617.859 130.609 617.859 127.24C617.859 123.785 618.664 121.294 620.271 119.769C621.003 119.039 621.952 118.451 623.04 118.054C624.129 117.655 625.327 117.459 626.534 117.48C628.172 117.436 629.771 117.865 631.008 118.683C632.274 119.61 633.073 120.845 633.267 122.172Z" fill="#3F3D56"/>
<path d="M625.781 145.149C638.908 145.149 649.548 137.07 649.548 127.104C649.548 117.138 638.908 109.06 625.781 109.06C612.655 109.06 602.015 117.138 602.015 127.104C602.015 137.07 612.655 145.149 625.781 145.149Z" fill="#2ECC71"/>
<path d="M622.958 130.054C622.877 131.023 623.236 131.983 623.978 132.774C624.241 133.059 624.588 133.296 624.994 133.462C625.398 133.629 625.847 133.721 626.308 133.732C626.715 133.735 627.117 133.666 627.483 133.53C627.848 133.393 628.167 133.194 628.412 132.948C629.061 132.184 629.357 131.281 629.253 130.376C629.354 129.426 629.036 128.478 628.346 127.682C628.085 127.42 627.75 127.207 627.362 127.059C626.976 126.91 626.551 126.831 626.118 126.828C625.685 126.824 625.256 126.895 624.866 127.037C624.476 127.178 624.132 127.386 623.864 127.643C623.197 128.341 622.877 129.195 622.958 130.054ZM633.267 122.172L628.864 122.559C628.829 121.971 628.533 121.409 628.022 120.966C627.789 120.793 627.514 120.659 627.211 120.57C626.907 120.482 626.583 120.441 626.259 120.451C625.772 120.456 625.296 120.553 624.87 120.732C624.445 120.912 624.086 121.168 623.823 121.48C622.944 122.807 622.513 124.278 622.568 125.762C623.058 125.264 623.695 124.859 624.43 124.581C625.164 124.304 625.972 124.163 626.792 124.166C627.723 124.164 628.643 124.317 629.485 124.614C630.329 124.913 631.076 125.349 631.671 125.89C633.066 127.125 633.792 128.714 633.702 130.338C633.81 132.037 633.045 133.702 631.567 134.98C630.814 135.571 629.905 136.032 628.897 136.332C627.89 136.632 626.809 136.765 625.728 136.72C624.649 136.675 623.593 136.455 622.635 136.074C621.677 135.692 620.837 135.159 620.174 134.51C618.632 133.032 617.859 130.609 617.859 127.24C617.859 123.785 618.664 121.294 620.271 119.769C621.003 119.039 621.952 118.451 623.04 118.054C624.129 117.655 625.327 117.459 626.534 117.48C628.172 117.436 629.771 117.865 631.008 118.683C632.274 119.61 633.073 120.845 633.267 122.172Z" fill="white"/>
<path d="M525.763 284.564C538.889 284.564 549.531 276.486 549.531 266.52C549.531 256.554 538.889 248.475 525.763 248.475C512.636 248.475 501.996 256.554 501.996 266.52C501.996 276.486 512.636 284.564 525.763 284.564Z" fill="#3F3D56"/>
<path d="M522.821 262.01C522.797 262.316 522.853 262.622 522.988 262.911C523.122 263.2 523.33 263.465 523.603 263.692C523.875 263.896 524.201 264.055 524.559 264.159C524.915 264.263 525.298 264.309 525.68 264.296C526.068 264.31 526.454 264.263 526.816 264.158C527.178 264.053 527.508 263.892 527.783 263.686C528.057 263.459 528.268 263.192 528.404 262.902C528.539 262.611 528.596 262.304 528.572 261.996C528.592 261.7 528.532 261.404 528.398 261.124C528.265 260.845 528.058 260.589 527.793 260.371C527.524 260.166 527.201 260.006 526.845 259.901C526.492 259.796 526.111 259.748 525.731 259.761C525.341 259.746 524.95 259.794 524.585 259.9C524.22 260.006 523.887 260.168 523.611 260.377C523.343 260.596 523.135 260.852 522.999 261.133C522.864 261.413 522.804 261.712 522.821 262.01ZM522.394 270.079C522.328 270.92 522.676 271.749 523.372 272.405C523.673 272.671 524.048 272.885 524.469 273.029C524.891 273.174 525.35 273.246 525.812 273.239C526.261 273.248 526.705 273.18 527.115 273.04C527.524 272.901 527.887 272.695 528.179 272.437C528.857 271.777 529.19 270.952 529.116 270.117C529.166 269.342 528.825 268.582 528.164 267.992C527.863 267.732 527.491 267.525 527.073 267.385C526.656 267.247 526.203 267.179 525.746 267.187C525.259 267.163 524.771 267.234 524.328 267.394C523.886 267.554 523.506 267.797 523.223 268.101C522.683 268.678 522.394 269.37 522.394 270.079ZM521.869 265.646C520.795 265.328 519.882 264.759 519.263 264.02C518.723 263.336 518.44 262.552 518.45 261.753C518.425 261.105 518.579 260.46 518.904 259.86C519.227 259.26 519.714 258.719 520.331 258.27C521.864 257.379 523.741 256.896 525.673 256.896C527.605 256.896 529.482 257.379 531.015 258.27C531.637 258.716 532.128 259.258 532.455 259.858C532.783 260.458 532.938 261.104 532.913 261.753C532.937 262.58 532.632 263.392 532.04 264.086C531.447 264.78 530.595 265.324 529.593 265.646C530.827 265.994 531.885 266.629 532.62 267.458C533.354 268.288 533.727 269.272 533.687 270.271C533.743 271.057 533.58 271.844 533.208 272.578C532.836 273.314 532.263 273.98 531.527 274.535C530.792 275.09 529.909 275.52 528.939 275.797C527.967 276.074 526.93 276.193 525.895 276.144C523.918 276.197 521.98 275.72 520.421 274.795C519.572 274.27 518.897 273.602 518.449 272.843C518.001 272.084 517.793 271.256 517.841 270.424C517.83 269.44 518.164 268.473 518.811 267.62C519.519 266.726 520.593 266.033 521.869 265.646Z" fill="#3F3D56"/>
<path d="M525.763 284.564C538.889 284.564 549.531 276.486 549.531 266.52C549.531 256.554 538.889 248.475 525.763 248.475C512.636 248.475 501.996 256.554 501.996 266.52C501.996 276.486 512.636 284.564 525.763 284.564Z" fill="#2ECC71"/>
<path d="M522.821 262.01C522.797 262.316 522.853 262.622 522.988 262.911C523.122 263.2 523.33 263.465 523.603 263.692C523.875 263.896 524.201 264.055 524.559 264.159C524.915 264.263 525.298 264.309 525.68 264.296C526.068 264.31 526.454 264.263 526.816 264.158C527.178 264.053 527.508 263.892 527.783 263.686C528.057 263.459 528.268 263.192 528.404 262.902C528.539 262.611 528.596 262.304 528.572 261.996C528.592 261.7 528.532 261.404 528.398 261.124C528.265 260.845 528.058 260.589 527.793 260.371C527.524 260.166 527.201 260.006 526.845 259.901C526.492 259.796 526.111 259.748 525.731 259.761C525.341 259.746 524.95 259.794 524.585 259.9C524.22 260.006 523.887 260.168 523.611 260.377C523.343 260.596 523.135 260.852 522.999 261.133C522.864 261.413 522.804 261.712 522.821 262.01ZM522.394 270.079C522.328 270.92 522.676 271.749 523.372 272.405C523.673 272.671 524.048 272.885 524.469 273.029C524.891 273.174 525.35 273.246 525.812 273.239C526.261 273.248 526.705 273.18 527.115 273.04C527.524 272.901 527.887 272.695 528.179 272.437C528.857 271.777 529.19 270.952 529.116 270.117C529.166 269.342 528.825 268.582 528.164 267.992C527.863 267.732 527.491 267.525 527.073 267.385C526.656 267.247 526.203 267.179 525.746 267.187C525.259 267.163 524.771 267.234 524.328 267.394C523.886 267.554 523.506 267.797 523.223 268.101C522.683 268.678 522.394 269.37 522.394 270.079ZM521.869 265.646C520.795 265.328 519.882 264.759 519.263 264.02C518.723 263.336 518.44 262.552 518.45 261.753C518.425 261.105 518.579 260.46 518.904 259.86C519.227 259.26 519.714 258.719 520.331 258.27C521.864 257.379 523.741 256.896 525.673 256.896C527.605 256.896 529.482 257.379 531.015 258.27C531.637 258.716 532.128 259.258 532.455 259.858C532.783 260.458 532.938 261.104 532.913 261.753C532.937 262.58 532.632 263.392 532.04 264.086C531.447 264.78 530.595 265.324 529.593 265.646C530.827 265.994 531.885 266.629 532.62 267.458C533.354 268.288 533.727 269.272 533.687 270.271C533.743 271.057 533.58 271.844 533.208 272.578C532.836 273.314 532.263 273.98 531.527 274.535C530.792 275.09 529.909 275.52 528.939 275.797C527.967 276.074 526.93 276.193 525.895 276.144C523.918 276.197 521.98 275.72 520.421 274.795C519.572 274.27 518.897 273.602 518.449 272.843C518.001 272.084 517.793 271.256 517.841 270.424C517.83 269.44 518.164 268.473 518.811 267.62C519.519 266.726 520.593 266.033 521.869 265.646Z" fill="white"/>
<path d="M325.702 549.97H1.40389C1.03155 549.97 0.674447 549.858 0.411166 549.659C0.147887 549.459 0 549.188 0 548.904C0 548.622 0.147887 548.351 0.411166 548.151C0.674447 547.951 1.03155 547.838 1.40389 547.838H325.702C326.074 547.838 326.432 547.951 326.695 548.151C326.958 548.351 327.106 548.622 327.106 548.904C327.106 549.188 326.958 549.459 326.695 549.659C326.432 549.858 326.074 549.97 325.702 549.97Z" fill="#CCCCCC"/>
<path d="M480.13 197.19C459.198 197.19 442.225 208.042 442.225 221.425V240.274C442.225 244.745 447.868 248.353 454.86 248.353H467.495V226.81H450.648V221.425C450.648 211.004 463.83 202.576 480.13 202.576C496.429 202.576 509.611 211.004 509.611 221.425V226.81H492.765V248.353H505.4C512.391 248.353 518.035 244.745 518.035 240.274V221.425C518.035 208.042 501.062 197.19 480.13 197.19Z" fill="#2ECC71"/>
<path d="M618.222 67.7907H588.192L601.208 59.3744L598.439 57.5581L582.613 67.7907L566.787 57.5581L563.978 59.3744L577.034 67.7907H547.005C542.653 67.7907 539.093 70.0674 539.093 72.907V103.605C539.093 106.419 542.653 108.721 547.005 108.721H618.222C622.574 108.721 626.134 106.419 626.134 103.605V72.907C626.134 70.0674 622.574 67.7907 618.222 67.7907ZM618.222 103.605H547.005V72.907H618.222V103.605ZM570.744 78.0232V98.4884L598.439 88.2558L570.744 78.0232Z" fill="#2ECC71"/>
<path d="M326.989 25.4037H320.086V69.5494C320.086 73.0181 323.193 75.856 326.989 75.856H375.306V69.5494H326.989V25.4037ZM382.208 12.7907H340.794C336.998 12.7907 333.891 15.6286 333.891 19.0973V56.9364C333.891 60.4049 336.998 63.2429 340.794 63.2429H382.208C386.005 63.2429 389.111 60.4049 389.111 56.9364V19.0973C389.111 15.6286 386.005 12.7907 382.208 12.7907ZM378.758 41.1701H344.245V34.8635H378.758V41.1701ZM364.952 53.7831H344.245V47.4766H364.952V53.7831ZM378.758 28.5571H344.245V22.2505H378.758V28.5571Z" fill="#2ECC71"/>
</svg>
