<svg width="650" height="550" viewBox="0 0 650 550" fill="none" xmlns="http://www.w3.org/2000/svg">
<path d="M64.3813 509.199C58.4591 528.516 67.6503 548.266 67.6503 548.266C67.6503 548.266 86.4433 536.696 92.3655 517.379C98.2876 498.062 89.0965 478.313 89.0965 478.313C89.0965 478.313 70.3036 489.882 64.3813 509.199Z" fill="#2ECC71"/>
<path d="M73.3732 509.722C78.3576 529.289 68.2244 548.595 68.2244 548.595C68.2244 548.595 50.01 536.174 45.0257 516.606C40.0414 497.039 50.1745 477.733 50.1745 477.733C50.1745 477.733 68.3889 490.154 73.3732 509.722Z" fill="#2ECC71"/>
<path d="M369.579 529.152L373.349 519.684L337.743 500.98L332.18 514.954L369.579 529.152Z" fill="black" fill-opacity="0.6"/>
<path d="M389.777 504.452C388.179 503.845 386.474 503.551 384.759 503.587C383.045 503.624 381.355 503.989 379.785 504.664C378.216 505.339 376.798 506.309 375.612 507.518C374.427 508.728 373.497 510.155 372.877 511.716L370.334 518.098L366.413 527.95L365.455 530.366L378.019 535.138L390.172 504.605L389.777 504.452Z" fill="black"/>
<path d="M366.415 510.93L364.775 515.176L360.684 525.772L360.586 526.037C350.161 527.345 338.733 524.781 328.163 520.797C323.934 519.205 319.792 517.4 315.753 515.39C309.776 512.441 304.424 509.328 300.154 506.666C293.725 502.637 289.75 499.612 289.75 499.612C289.75 499.612 288.7 500.539 286.8 502.128C284.253 504.256 280.183 507.579 275.028 511.49C273.061 512.993 270.95 514.565 268.693 516.205C252.061 528.252 230.715 496.107 230.715 496.107C230.715 496.107 236.719 492.375 238.287 491.65C243.337 489.317 255.201 483.812 265.436 478.92C270.709 476.396 275.544 474.03 278.79 472.348C290.285 466.372 304.573 477.679 304.573 477.679L366.415 510.93Z" fill="black" fill-opacity="0.6"/>
<path opacity="0.14" d="M366.415 510.93L364.775 515.176L360.684 525.772L360.586 526.037C350.161 527.345 338.733 524.781 328.163 520.797C323.934 519.205 319.792 517.4 315.753 515.39C309.776 512.441 304.424 509.328 300.154 506.666C293.725 502.637 289.75 499.612 289.75 499.612C289.75 499.612 288.7 500.539 286.8 502.128C284.253 504.256 280.183 507.579 275.028 511.49C273.061 512.993 270.95 514.565 268.693 516.205C252.061 528.252 230.715 496.107 230.715 496.107C230.715 496.107 236.719 492.375 238.287 491.65C243.337 489.317 255.201 483.812 265.436 478.92C270.709 476.396 275.544 474.03 278.79 472.348C290.285 466.372 304.573 477.679 304.573 477.679L366.415 510.93Z" fill="black"/>
<path d="M155.778 285.551C236.532 285.551 301.996 221.628 301.996 142.775C301.996 63.9227 236.532 0 155.778 0C75.0246 0 9.56079 63.9227 9.56079 142.775C9.56079 221.628 75.0246 285.551 155.778 285.551Z" fill="#2ECC71"/>
<path opacity="0.2" d="M47.8162 47.4126C34.1774 78.5652 32.3272 113.438 42.5963 145.8C52.8653 178.162 74.5845 205.904 103.873 224.069C133.161 242.234 168.109 249.638 202.473 244.958C236.837 240.278 268.378 223.819 291.458 198.522C283.126 217.555 270.657 234.591 254.913 248.451C239.169 262.311 220.527 272.663 200.279 278.79C180.031 284.916 158.661 286.671 137.65 283.933C116.638 281.194 96.4878 274.028 78.5943 262.93C60.7009 251.832 45.4923 237.069 34.0223 219.662C22.5523 202.255 15.0952 182.621 12.1675 162.121C9.23984 141.621 10.9117 120.744 17.0672 100.937C23.2227 81.1302 33.7147 62.8669 47.8162 47.4126Z" fill="black"/>
<path d="M156.18 142.775H156.582L163.813 547.566H148.548L156.18 142.775Z" fill="black"/>
<path d="M133.672 326.358L130.303 332.605L154.473 345.031L157.842 338.784L133.672 326.358Z" fill="#3F3D56"/>
<path d="M649.151 549.178H0.848564C0.623511 549.178 0.407675 549.091 0.248538 548.935C0.0894014 548.78 0 548.569 0 548.349C0 548.13 0.0894014 547.919 0.248538 547.763C0.407675 547.608 0.623511 547.521 0.848564 547.521H649.151C649.376 547.521 649.592 547.608 649.751 547.763C649.911 547.919 650 548.13 650 548.349C650 548.569 649.911 548.78 649.751 548.935C649.592 549.091 649.376 549.178 649.151 549.178Z" fill="#3F3D56"/>
<path d="M200.046 421.815H150.829C149.816 421.813 148.846 421.42 148.13 420.721C147.414 420.022 147.011 419.074 147.01 418.086V397.371C147.01 390.009 150.005 382.949 155.336 377.744C160.667 372.538 167.898 369.614 175.437 369.614C182.976 369.614 190.207 372.538 195.538 377.744C200.869 382.949 203.864 390.009 203.864 397.371V418.086C203.863 419.074 203.46 420.022 202.744 420.721C202.028 421.42 201.058 421.813 200.046 421.815Z" fill="black"/>
<path d="M246.85 447.834C245.705 448.03 244.617 448.47 243.664 449.121C242.711 449.772 241.916 450.62 241.334 451.604C240.753 452.587 240.4 453.684 240.299 454.815C240.199 455.947 240.354 457.086 240.753 458.153L227.37 470.173L232.866 479.896L251.522 462.663C253.313 461.889 254.751 460.501 255.564 458.761C256.376 457.021 256.507 455.05 255.931 453.222C255.356 451.394 254.113 449.836 252.439 448.843C250.766 447.85 248.777 447.491 246.85 447.834Z" fill="#FFB8B8"/>
<path d="M206.581 502.48C205.977 502.48 205.371 502.455 204.765 502.404C201.155 502.11 197.68 500.925 194.668 498.96C191.655 496.996 189.203 494.316 187.541 491.172L166.1 450.876C164.695 448.235 164.387 445.168 165.239 442.311C166.092 439.454 168.039 437.028 170.676 435.538C173.314 434.047 176.438 433.607 179.4 434.309C182.361 435.01 184.931 436.8 186.576 439.305L206.357 482.643L233.272 461.289L248.857 467.212L222.538 495.585C220.515 497.753 218.051 499.487 215.303 500.674C212.556 501.861 209.586 502.476 206.581 502.48V502.48Z" fill="black"/>
<path d="M285.893 440.216L262.047 416.932C261.212 416.117 260.081 415.659 258.901 415.659C257.722 415.659 256.59 416.117 255.756 416.932L234.304 437.878C233.47 438.693 233.002 439.798 233.002 440.949C233.002 442.101 233.47 443.206 234.304 444.021L256.585 465.776C257.379 466.552 258.445 467.006 259.568 467.046C260.691 467.086 261.788 466.709 262.638 465.992L285.655 446.574C286.097 446.201 286.46 445.747 286.722 445.237C286.984 444.728 287.141 444.173 287.184 443.604C287.226 443.035 287.154 442.463 286.97 441.922C286.786 441.381 286.495 440.88 286.113 440.448C286.043 440.368 285.969 440.291 285.893 440.216Z" fill="#3F3D56"/>
<path d="M282.517 444.3L257.971 420.333L237.715 440.112L261.308 463.148L282.517 444.3Z" fill="#F2F2F2"/>
<path d="M259.711 451.275C265.216 451.275 269.679 446.918 269.679 441.543C269.679 436.167 265.216 431.81 259.711 431.81C254.207 431.81 249.744 436.167 249.744 441.543C249.744 446.918 254.207 451.275 259.711 451.275Z" fill="#2ECC71"/>
<path opacity="0.1" d="M264.148 449.838C265.815 448.308 266.893 446.265 267.199 444.051C267.506 441.837 267.024 439.587 265.833 437.68C264.643 435.772 262.816 434.323 260.66 433.574C258.504 432.826 256.151 432.825 253.994 433.571C255.159 432.774 256.485 432.23 257.884 431.976C259.282 431.721 260.72 431.762 262.101 432.094C263.482 432.427 264.774 433.045 265.89 433.906C267.006 434.767 267.92 435.851 268.572 437.086C269.223 438.321 269.596 439.677 269.666 441.064C269.736 442.452 269.501 443.837 268.977 445.129C268.453 446.42 267.652 447.586 266.628 448.55C265.604 449.514 264.38 450.253 263.039 450.717C263.43 450.45 263.8 450.156 264.148 449.838Z" fill="black"/>
<path d="M254.811 439.609C253.622 440.699 253.559 444.625 255.374 446.511C257.189 448.397 260.194 447.529 261.383 446.439C262.572 445.348 261.494 444.448 259.679 442.562C257.864 440.676 255.999 438.518 254.811 439.609Z" fill="#F2F2F2"/>
<path d="M264.929 444.585C266.56 444.585 267.883 443.294 267.883 441.701C267.883 440.109 266.56 438.818 264.929 438.818C263.298 438.818 261.976 440.109 261.976 441.701C261.976 443.294 263.298 444.585 264.929 444.585Z" fill="#2F2E41"/>
<path d="M259.621 439.068C261.252 439.068 262.574 437.777 262.574 436.185C262.574 434.592 261.252 433.301 259.621 433.301C257.99 433.301 256.668 434.592 256.668 436.185C256.668 437.777 257.99 439.068 259.621 439.068Z" fill="#2F2E41"/>
<path d="M264.929 442.422C265.337 442.422 265.668 442.099 265.668 441.701C265.668 441.303 265.337 440.98 264.929 440.98C264.522 440.98 264.191 441.303 264.191 441.701C264.191 442.099 264.522 442.422 264.929 442.422Z" fill="#F2F2F2"/>
<path d="M265.247 440.289C265.451 440.289 265.616 440.127 265.616 439.927C265.616 439.727 265.451 439.565 265.247 439.565C265.043 439.565 264.878 439.727 264.878 439.927C264.878 440.127 265.043 440.289 265.247 440.289Z" fill="#F2F2F2"/>
<path d="M259.939 434.772C260.143 434.772 260.308 434.61 260.308 434.41C260.308 434.211 260.143 434.049 259.939 434.049C259.735 434.049 259.57 434.211 259.57 434.41C259.57 434.61 259.735 434.772 259.939 434.772Z" fill="#F2F2F2"/>
<path d="M259.621 436.906C260.029 436.906 260.359 436.583 260.359 436.185C260.359 435.786 260.029 435.464 259.621 435.464C259.213 435.464 258.883 435.786 258.883 436.185C258.883 436.583 259.213 436.906 259.621 436.906Z" fill="#F2F2F2"/>
<path d="M366.571 542.468L371.075 533.311L337.046 511.992L330.399 525.507L366.571 542.468Z" fill="black"/>
<path d="M388.653 519.357C387.107 518.632 385.43 518.211 383.718 518.118C382.006 518.026 380.292 518.264 378.674 518.819C377.056 519.373 375.566 520.234 374.289 521.352C373.012 522.469 371.973 523.821 371.232 525.331L368.194 531.504L363.51 541.033L362.364 543.37L374.515 549.07L389.034 519.539L388.653 519.357Z" fill="black"/>
<path d="M364.85 524.063L362.882 528.173L357.968 538.431L357.85 538.688C347.353 539.21 336.161 535.796 325.935 531.032C321.844 529.126 317.856 527.016 313.988 524.71C308.26 521.321 303.168 517.816 299.121 514.841C293.028 510.342 289.303 507.028 289.303 507.028C289.303 507.028 288.183 507.873 286.163 509.314C283.456 511.245 279.137 514.253 273.689 517.766C271.61 519.117 269.381 520.525 267.003 521.992C249.471 532.755 224.54 545.864 203.335 548.631C166.091 553.495 174.857 504.964 174.857 504.964L204.497 489.934L217.082 492.428L231.091 495.195L236.055 496.181C236.055 496.181 236.997 495.833 238.618 495.228C243.837 493.281 256.098 488.683 266.689 484.573C272.145 482.452 277.151 480.455 280.52 479.021C292.451 473.925 305.807 486.271 305.807 486.271L364.85 524.063Z" fill="black"/>
<path d="M120.619 549.79C121.753 549.536 122.816 549.042 123.733 548.343C124.65 547.645 125.4 546.758 125.928 545.747C126.456 544.735 126.751 543.622 126.792 542.487C126.832 541.352 126.617 540.222 126.162 539.176L138.891 526.497L132.887 517.065L115.169 535.217C113.421 536.08 112.058 537.539 111.339 539.318C110.619 541.096 110.593 543.071 111.265 544.867C111.937 546.663 113.26 548.157 114.984 549.064C116.708 549.971 118.713 550.23 120.619 549.79L120.619 549.79Z" fill="#FFB8B8"/>
<path d="M182.406 422.74C193.365 422.74 202.25 414.064 202.25 403.362C202.25 392.66 193.365 383.984 182.406 383.984C171.446 383.984 162.561 392.66 162.561 403.362C162.561 414.064 171.446 422.74 182.406 422.74Z" fill="#FFB8B8"/>
<path d="M156.588 457.152L173.875 505.007L173.771 505.175C171.367 509.056 170.581 512.187 171.499 514.228C171.741 514.747 172.095 515.209 172.537 515.582C172.979 515.954 173.499 516.228 174.06 516.386L214.969 488.465L213.536 477.275L213.616 477.15C217.57 470.972 218.85 465.378 217.422 460.522C215.568 454.222 209.678 451.361 209.619 451.333L209.476 451.223L189.073 426.975L161.798 431.706L156.588 457.152Z" fill="black"/>
<path d="M130.3 541.15L118.719 527.233L146.636 482.232L159.652 442.947L160.056 443.074L159.652 442.947C160.363 440.801 161.537 438.828 163.095 437.163C164.652 435.497 166.558 434.177 168.682 433.291C170.807 432.405 173.101 431.974 175.41 432.027C177.72 432.08 179.991 432.616 182.07 433.599C184.149 434.581 185.989 435.988 187.465 437.723C188.94 439.459 190.018 441.483 190.624 443.659C191.231 445.836 191.353 448.114 190.982 450.341C190.61 452.567 189.755 454.69 188.472 456.566L164.577 491.523L130.3 541.15Z" fill="black"/>
<path d="M210.589 399.443H180.494L180.186 395.224L178.643 399.443H174.009L173.397 391.081L170.339 399.443H161.373V399.028C161.379 393.207 163.751 387.626 167.966 383.509C172.182 379.393 177.897 377.077 183.859 377.071H188.102C194.064 377.077 199.78 379.393 203.996 383.509C208.211 387.626 210.583 393.207 210.589 399.028V399.443Z" fill="black"/>
<path d="M180.248 425.681C180.022 425.681 179.796 425.662 179.572 425.623L157.536 421.827V386.264H181.794L181.193 386.947C172.837 396.463 179.133 411.893 183.629 420.244C183.96 420.855 184.108 421.546 184.055 422.236C184.002 422.926 183.751 423.587 183.33 424.144C182.977 424.62 182.514 425.007 181.978 425.275C181.443 425.542 180.85 425.681 180.248 425.681V425.681Z" fill="black"/>
<path d="M499.074 363.493C552.5 363.493 595.81 321.202 595.81 269.034C595.81 216.865 552.5 174.575 499.074 174.575C445.648 174.575 402.337 216.865 402.337 269.034C402.337 321.202 445.648 363.493 499.074 363.493Z" fill="#2ECC71"/>
<path d="M474.341 232.318V312.684C474.319 313.056 474.402 313.427 474.579 313.757C474.756 314.087 475.021 314.365 475.346 314.56C475.671 314.756 476.044 314.861 476.426 314.867C476.807 314.872 477.184 314.777 477.514 314.591L542.755 274.408C543.074 274.2 543.336 273.918 543.517 273.588C543.698 273.258 543.792 272.889 543.792 272.514C543.792 272.139 543.698 271.77 543.517 271.44C543.336 271.11 543.074 270.828 542.755 270.62L477.514 230.437C477.187 230.246 476.812 230.145 476.43 230.146C476.048 230.147 475.673 230.25 475.347 230.444C475.02 230.637 474.754 230.914 474.577 231.244C474.4 231.574 474.318 231.946 474.341 232.318V232.318Z" fill="#F2F2F2"/>
</svg>
